<?xml version="1.0" encoding="UTF-8" standalone="no"?>
<!-- Created with Inkscape (http://www.inkscape.org/) -->

<svg
   xmlns:dc="http://purl.org/dc/elements/1.1/"
   xmlns:cc="http://creativecommons.org/ns#"
   xmlns:rdf="http://www.w3.org/1999/02/22-rdf-syntax-ns#"
   xmlns:svg="http://www.w3.org/2000/svg"
   xmlns="http://www.w3.org/2000/svg"
   xmlns:sodipodi="http://sodipodi.sourceforge.net/DTD/sodipodi-0.dtd"
   xmlns:inkscape="http://www.inkscape.org/namespaces/inkscape"
   version="1.1"
   id="svg927"
   width="512"
   height="512"
   viewBox="0 0 512 512"
   sodipodi:docname="flower.svg"
   inkscape:version="0.92.4 (5da689c313, 2019-01-14)"
   inkscape:export-filename="/home/peter/repos/friendsofthedales/assets/img/flower.png"
   inkscape:export-xdpi="96.000008"
   inkscape:export-ydpi="96.000008">
  <metadata
     id="metadata933">
    <rdf:RDF>
      <cc:Work
         rdf:about="">
        <dc:format>image/svg+xml</dc:format>
        <dc:type
           rdf:resource="http://purl.org/dc/dcmitype/StillImage" />
        <dc:title></dc:title>
      </cc:Work>
    </rdf:RDF>
  </metadata>
  <defs
     id="defs931" />
  <sodipodi:namedview
     pagecolor="#ffffff"
     bordercolor="#666666"
     borderopacity="1"
     objecttolerance="10"
     gridtolerance="10"
     guidetolerance="10"
     inkscape:pageopacity="0"
     inkscape:pageshadow="2"
     inkscape:window-width="1920"
     inkscape:window-height="1015"
     id="namedview929"
     showgrid="false"
     inkscape:zoom="1.5318794"
     inkscape:cx="173.55831"
     inkscape:cy="282.76162"
     inkscape:window-x="0"
     inkscape:window-y="0"
     inkscape:window-maximized="1"
     inkscape:current-layer="svg927" />
  <path
     style="fill:#ed96df;fill-opacity:1"
     d="m 339.65832,500.78776 c -1.925,-0.74131 -4.99208,-1.38208 -6.81574,-1.42392 -1.82366,-0.0418 -4.29866,-0.62746 -5.5,-1.30136 -2.86836,-1.60904 -12.14483,-3.62392 -17.18426,-3.73248 -2.2,-0.0474 -5.96164,-0.97628 -8.3592,-2.0642 -2.39757,-1.08792 -5.04445,-1.97804 -5.88197,-1.97804 -0.83752,0 -2.92588,-0.84869 -4.6408,-1.88598 -1.71491,-1.03729 -4.24303,-2.22386 -5.61803,-2.63683 -1.375,-0.41297 -3.72284,-1.70178 -5.21741,-2.86402 -1.49458,-1.16224 -4.50633,-3.46317 -6.69279,-5.11317 -2.18646,-1.65 -4.67248,-4.6875 -5.52449,-6.75 -0.85202,-2.0625 -1.97083,-3.75 -2.48625,-3.75 -0.83666,0 -4.61174,-10.61169 -4.30399,-12.09842 0.0681,-0.32913 -0.52305,-3.02913 -1.31373,-6 -0.79068,-2.97087 -1.44294,-6.79434 -1.44947,-8.49659 -0.007,-1.74309 -0.83039,-3.83577 -1.88575,-4.79085 -1.43534,-1.29897 -1.98056,-3.53875 -2.32975,-9.57068 -0.26885,-4.64429 -1.08055,-8.83246 -1.97861,-10.20915 -0.83751,-1.28387 -1.81801,-5.48431 -2.17889,-9.33431 -1.06441,-11.35565 -2.24226,-17.76135 -3.99338,-21.71788 -0.90502,-2.04484 -1.64549,-5.61289 -1.64549,-7.929 0,-2.31612 -0.4216,-5.59307 -0.93689,-7.28212 -3.19582,-10.47549 -4.06311,-14.20311 -4.06311,-17.46333 0,-2.01446 -0.61575,-4.55029 -1.36833,-5.63516 -0.75258,-1.08488 -1.94422,-6.02251 -2.64808,-10.97251 -0.70386,-4.95 -1.63174,-9.39612 -2.06195,-9.88028 -0.4302,-0.48415 -2.37023,0.42872 -4.31116,2.0286 -3.15777,2.6029 -7.33606,9.13302 -12.38214,19.35168 -0.95059,1.925 -2.25759,3.84126 -2.90446,4.25835 -1.75962,1.13457 -7.32388,12.73319 -7.32388,15.26651 0,1.21298 -0.9,3.34959 -2,4.74801 -1.1,1.39842 -2,2.87439 -2,3.27993 0,0.69851 -5.53429,12.06566 -8.49447,17.4472 -0.75633,1.375 -3.97465,7.81976 -7.15181,14.32168 -3.17716,6.50192 -6.09867,12.02069 -6.49223,12.26393 -0.39357,0.24323 -1.2553,2.12348 -1.91496,4.17832 -0.65966,2.05484 -1.7606,4.41107 -2.44653,5.23607 -0.68593,0.825 -1.77934,3.15844 -2.42981,5.18541 -0.65046,2.02698 -1.54412,3.82698 -1.9859,4 -0.44179,0.17303 -2.47288,3.80209 -4.51354,8.06459 -2.04067,4.2625 -4.15186,7.75 -4.69155,7.75 -0.53969,0 -1.6424,1.58234 -2.45046,3.5163 -2.18727,5.23489 -11.11349,13.49304 -16.33767,15.11492 -5.30423,1.64673 -25.71236,1.84654 -29.77597,0.29153 -3.11585,-1.19233 -12.63713,0.29061 -17.515445,2.72804 -3.939,1.9681 -11.257045,1.66667 -15.799645,-0.65079 -2.15618,-1.1 -4.43271,-2 -5.05895,-2 -1.82348,0 -7.1679,-6.11051 -9.6209,-11 -2.58807,-5.1587 -3.07149,-13.46376 -0.96204,-16.52749 0.74697,-1.08488 1.66173,-3.77251 2.03282,-5.97251 1.38331,-8.20113 2.87252,-14.07759 4.2205,-16.65429 0.76371,-1.45986 1.38857,-4.01522 1.38857,-5.67857 0,-1.66336 0.70369,-3.72797 1.56376,-4.58804 1.77566,-1.77566 1.11409,-3.5791 -1.31296,-3.5791 -0.89713,0 -4.35808,1.28587 -7.69098,2.85749 -7.34387,3.46298 -11.82178,5.08577 -16.89026,6.12101 -2.10673,0.4303 -4.33423,1.28617 -4.95,1.90193 -0.69744,0.69745 -5.49467,1.11957 -12.72339,1.11957 H 19.05066 l -3.19616,-3.29761 c -1.7579,-1.81368 -3.21592,-3.95118 -3.24006,-4.75 -0.0241,-0.79881 -0.75414,-3.25239 -1.62221,-5.45239 -0.96043,-2.43406 -1.8250799,-8.89355 -2.2086399,-16.5 -0.53031,-10.51662 -1.01081,-13.21402 -3.02831,-17 -1.3189,-2.475 -2.844517,-6.3 -3.390267,-8.5 -2.19190027,-8.83583 -0.5682703,-22.31791 3.276307,-27.20551 1.10936,-1.41032 2.01701,-3.153 2.01701,-3.87264 0,-0.71965 0.9205,-1.95319 2.04556,-2.74121 1.1250599,-0.78802 3.3204799,-3.44311 4.8787199,-5.90019 1.55823,-2.45708 4.57523,-5.53377 6.70443,-6.83708 2.12921,-1.30332 5.53956,-4.09046 7.57856,-6.19364 2.03899,-2.10319 5.08599,-4.3046 6.7711,-4.89204 1.68512,-0.58743 3.52018,-1.92072 4.07792,-2.96287 0.55774,-1.04215 1.48087,-1.89482 2.0514,-1.89482 0.94902,0 19.99901,-9.24255 25.89231,-12.56226 1.375,-0.77454 3.67681,-1.41489 5.11514,-1.423 1.43833,-0.008 3.68833,-0.8561 5,-1.88442 1.31167,-1.02833 3.95986,-2.20976 5.88486,-2.6254 1.925,-0.41565 5.075,-1.57656 7,-2.57981 5.913815,-3.08209 16.24282,-6.6299 21.49999,-7.38484 2.75,-0.3949 5.675,-1.29384 6.5,-1.99764 0.825,-0.70381 3.525,-1.59755 6,-1.9861 10.15465,-1.59419 13.63759,-2.32248 16.3151,-3.41152 1.5483,-0.62976 6.23787,-1.14501 10.42126,-1.14501 5.53585,0 8.0824,-0.431 9.35584,-1.58344 0.96233,-0.8709 3.89249,-2.13008 6.51147,-2.79819 2.61898,-0.66811 4.92368,-1.70041 5.12154,-2.29401 0.20033,-0.60098 -2.65035,-1.86227 -6.43273,-2.84616 -3.73586,-0.97179 -7.70203,-2.31985 -8.81369,-2.99569 -1.11167,-0.67584 -3.81167,-1.48178 -6,-1.79098 -7.52878,-1.06378 -12.98341,-2.32544 -15.16305,-3.50723 -1.20134,-0.65137 -4.12634,-1.20405 -6.5,-1.22819 -2.37366,-0.0241 -6.11574,-0.73469 -8.31574,-1.57899 -2.2,-0.8443 -5.35,-1.68856 -7,-1.87612 -3.36208,-0.38219 -10.46231,-2.13203 -15.000005,-3.69672 -1.65,-0.56896 -6.09343,-1.44691 -9.874295,-1.95101 -3.78088,-0.5041 -8.81869,-1.80231 -11.19514,-2.88491 -2.37645,-1.0826 -6.30983,-1.96836 -8.74083,-1.96836 -2.7037,0 -5.34605,-0.69821 -6.80486,-1.79811 -1.31168,-0.98896 -4.85986,-2.3828 -7.88486,-3.09742 -8.52642,-2.01428 -24.95744,-10.38692 -29.02369,-14.78941 -7.08634,-7.67231 -7.68474,-9.10297 -8.13752,-19.45537 -0.31689,-7.24538 -0.88383,-10.27245 -2.3345,-12.46452 -6.3016599,-9.52225 -8.5042899,-17.87199 -8.5042899,-32.23808 0,-10.52718 0.0863,-10.94447 3.25,-15.7223 1.7874999,-2.69945 4.5999999,-6.13841 6.2499999,-7.64213 2.81311,-2.56371 3.58199,-2.73586 12.34227,-2.76335 7.85619,-0.0246 9.74672,0.28883 11.88486,1.97069 1.39842,1.1 3.53988,2 4.75879,2 1.21891,0 4.26752,1.0907 6.7747,2.42378 2.50717,1.33307 4.82419,2.15807 5.14894,1.83333 1.51205,-1.51206 0.24959,-5.26456 -3.40956,-10.13443 -2.2,-2.92793 -4,-5.93986 -4,-6.69318 0,-0.75333 -1.32545,-3.978 -2.94545,-7.16595 -2.64609,-5.20717 -2.86869,-6.36192 -2.19018,-11.361886 1.33439,-9.833132 5.73926,-14.855382 13.05689,-14.886922 1.88169,-0.008 4.18379,-0.70482 5.11576,-1.54825 0.93198,-0.84342 5.24242,-2.00783 9.57875,-2.58756 11.89311,-1.59002 38.2281,-2.28015 40.74551,-1.06777 1.17629,0.5665 4.16371,1.27937 6.63871,1.58416 9.06374,1.11619 16.53092,6.11639 31.50907,21.099233 9.3129,9.315825 11.59367,12.244545 14.80342,19.008985 5.37452,11.32665 8.76365,17.74748 10.33243,19.5752 0.7453,0.86831 1.35491,1.99331 1.35469,2.5 -3.4e-4,0.82355 4.55614,10.71203 7.33631,15.92126 0.58708,1.1 1.78028,3.35 2.65157,5 0.87129,1.65 3.48055,5.90198 5.79834,9.44884 2.31779,3.54685 4.21417,6.85168 4.21417,7.34405 0,0.49237 2.025,3.55792 4.5,6.81233 2.475,3.25441 4.50669,6.24959 4.51488,6.65595 0.008,0.40636 1.58062,2.53883 3.49431,4.73883 3.36041,3.86317 3.53094,3.9336 4.98512,2.05887 1.10892,-1.42961 1.50569,-4.55114 1.50569,-11.84571 0,-7.45023 0.41312,-10.60394 1.66717,-12.72687 -1.05494,-7.85683 -0.40215,-11.59911 0,-19.5908 l -2.88785,-19.71123 c -0.67138,-1.20134 -1.58799,-6.00926 -2.03691,-10.68426 -2.04163,-21.26106 -2.21082,-26.684691 -1.04502,-33.499998 0.65857,-3.85 1.22107,-9.98606 1.25,-13.63569 0.0305,-3.84172 0.68159,-7.84172 1.54645,-9.5 0.82161,-1.57537 1.49661,-4.93478 1.5,-7.46537 0.004,-2.92693 0.87979,-6.24412 2.40717,-9.11674 1.32056,-2.48363 2.55806,-5.2282 2.75,-6.09904 0.53402,-2.42284 15.86861,-17.68316 17.76922,-17.68316 0.92063,0 3.41202,-1.78002 5.53641,-3.95559 2.1244,-2.17558 5.08524,-4.22415 6.57966,-4.55238 1.49442,-0.32823 4.21003,-1.69821 6.03469,-3.0444 1.82466,-1.346201 4.59837,-2.447631 6.16378,-2.447631 1.56542,0 4.21397,-1.012497 5.88566,-2.2499965 2.65737,-1.967164 4.48996,-2.292611 14.57845,-2.5889768 15.3743,-0.451646 17.63393,0.04299 20.22011,4.4262523 1.82569,3.094312 2.08101,5.151792 2.08101,16.769882 0,18.21129 1.51624,19.46272 11.76503,9.71031 3.42897,-3.2629 7.24709,-6.24694 8.48473,-6.6312 1.23763,-0.38426 3.5909,-1.65212 5.2295,-2.81746 4.12483,-2.93353 6.35386,-4.24852 11.22932,-6.62464 2.31472,-1.12811 4.47878,-2.4883 4.80902,-3.02264 1.2796,-2.07044 9.07787,-0.99856 14.55482,2.00058 8.55515,4.68474 10.91298,7.02543 11.61235,11.52789 0.34172,2.2 1.45245,5.07319 2.46827,6.38486 1.01583,1.31167 1.84696,3.6956 1.84696,5.29762 0,2.16124 1.2876,4.20036 4.99052,7.90328 2.74479,2.74479 5.2326,6.21086 5.52847,7.70238 0.29588,1.49153 1.04285,4.06186 1.65994,5.71186 1.9608,5.24285 2.14421,12.14589 0.41481,15.61255 -0.87656,1.7571 -1.59374,4.91649 -1.59374,7.02085 0,3.90086 -2.63832,11.866593 -3.93032,11.866593 -0.39224,0 -1.7479,2.289525 -3.01257,5.087815 -1.26467,2.7983 -3.81989,6.6083 -5.67826,8.46667 -1.85837,1.85837 -3.37885,4.01588 -3.37885,4.79447 0,0.77859 -3.375,4.82363 -7.5,8.98897 -4.125,4.16535 -7.5,8.0668 -7.5,8.66989 0,0.6031 -3.15,4.42458 -7,8.49219 -3.85,4.06761 -7,7.8798 -7,8.47155 0,0.59175 -3.80557,4.92455 -8.45682,9.62845 -4.65125,4.7039 -8.74901,9.47315 -9.10613,10.59835 -0.35713,1.1252 -6.59971,7.95337 -13.8724,15.17373 -7.2727,7.22036 -14.4437,15.22448 -15.93557,17.78693 -1.49186,2.56246 -3.4194,4.93028 -4.2834,5.26184 -1.27,0.48734 -1.33434,0.88789 -0.33586,2.09098 0.67929,0.81849 2.02559,1.48817 2.99178,1.48817 3.03854,0 23.99155,-9.83042 23.99602,-11.2581 0.001,-0.41695 1.80238,-1.47831 4.00238,-2.35858 2.2,-0.88026 4,-1.97129 4,-2.42451 0,-0.45322 1.0125,-1.12438 2.25,-1.49146 2.07743,-0.61624 6.29391,-3.09375 12.89968,-7.57956 1.45733,-0.98963 3.86369,-2.10403 5.34748,-2.47643 1.48379,-0.37241 4.74254,-2.2379 7.24168,-4.14553 2.49913,-1.90764 5.94277,-3.93656 7.65252,-4.50873 1.70975,-0.57217 3.78364,-1.58786 4.60864,-2.2571 0.825,-0.66924 2.9824,-1.71404 4.79423,-2.32179 1.81182,-0.60776 4.58129,-2.02148 6.15437,-3.14161 1.57308,-1.12013 3.33716,-2.0366 3.92019,-2.0366 0.58303,0 7.16707,-3.15 14.63121,-7 7.46414,-3.85 14.35502,-7 15.31307,-7 0.95806,0 2.85455,-0.7875 4.21442,-1.75 3.50067,-2.47772 24.03725,-2.40638 26.79913,0.0931 1.00697,0.9113 2.69901,1.65691 3.76008,1.65691 1.06107,0 4.04252,1.125 6.62545,2.5 2.58293,1.375 5.24635,2.5 5.91872,2.5 1.40603,0 13.33629,7.80965 19.64251,12.85815 5.16973,4.13867 9.76859,10.72715 11.20109,16.04705 0.5818,2.16063 1.71025,5.18598 2.50767,6.72301 1.54031,2.96895 1.1296,6.54278 -1.13134,9.8443 -0.74294,1.08487 -1.3508,2.98241 -1.3508,4.21675 0,1.48555 -2.89127,5.129 -8.55248,10.77749 -4.70387,4.69329 -9.02548,8.53325 -9.60358,8.53325 -0.5781,0 -3.74384,2.25 -7.03496,5 -3.29113,2.75 -6.28202,5.00285 -6.64643,5.00632 -1.01057,0.01 -4.06243,5.76047 -3.40556,6.41734 0.31699,0.31699 3.01959,0.57634 6.00577,0.57634 5.39919,0 15.02967,2.13752 18.61428,4.1315 1.03238,0.57427 4.3816,1.69648 7.44271,2.4938 3.06111,0.79732 6.04144,1.80401 6.62295,2.2371 0.58152,0.43309 2.90048,1.31352 5.15325,1.9565 3.42865,0.97861 4.35231,1.82172 5.66955,5.17509 0.91175,2.32107 2.23835,4.00601 3.15405,4.00601 1.27236,0 1.58045,1.22086 1.58045,6.26287 0,5.53568 -0.26125,6.37749 -2.25,7.25 -1.47075,0.64525 -2.36125,2.02613 -2.57123,3.98713 -0.17668,1.65 -1.41418,4.03071 -2.75,5.29047 -1.33582,1.25976 -2.42877,2.94726 -2.42877,3.75 0,0.80274 -0.7875,2.25897 -1.75,3.23606 -6.30628,6.4019 -7.25,8.2675 -7.25,14.33231 0,10.34428 -5.16415,18.22797 -13,19.84606 -2.475,0.51108 -6.975,1.84062 -10,2.95453 -4.69447,1.72865 -7.96049,2.03006 -22.29966,2.05792 -12.8428,0.025 -17.46633,-0.3121 -19.63015,-1.43105 -1.55677,-0.80504 -5.3033,-1.43417 -8.32562,-1.39807 -3.02232,0.0361 -6.42643,-0.43278 -7.56469,-1.04196 -1.13826,-0.60918 -4.84525,-1.31163 -8.23777,-1.561 -3.39251,-0.24937 -7.13164,-1.08466 -8.30917,-1.85621 -2.1095,-1.38219 -5.28687,-2.07544 -15.13294,-3.30174 -2.75,-0.3425 -5.675,-1.17744 -6.5,-1.85542 -0.825,-0.67798 -4.875,-2.04195 -9,-3.03104 -4.125,-0.9891 -9.42823,-2.40417 -11.78495,-3.14461 -2.35672,-0.74045 -5.11412,-1.34626 -6.12755,-1.34626 -1.01344,0 -2.34239,-0.6022 -2.95324,-1.33823 -0.61085,-0.73602 -3.59095,-1.89329 -6.62244,-2.57171 -3.0315,-0.67842 -5.51182,-1.63388 -5.51182,-2.12323 0,-0.48936 -1.9125,-1.36415 -4.25,-1.94398 -2.3375,-0.57982 -5.6,-1.67784 -7.25,-2.44003 -4.5854,-2.11814 -12.24905,-3.89309 -13.96539,-3.23448 -2.67676,1.02717 -1.76533,4.48099 1.64832,6.24626 1.75061,0.90527 4.56311,2.98253 6.25,4.61612 1.68689,1.63359 4.42621,3.56732 6.08737,4.29717 1.66117,0.72985 3.86841,2.26415 4.90499,3.40956 1.03658,1.1454 2.26057,2.08255 2.71998,2.08255 0.98478,0 13.27409,8.05677 16.79437,11.01025 1.34181,1.12576 3.47931,2.30778 4.75,2.6267 1.2707,0.31893 2.31036,1.00404 2.31036,1.52248 0,0.51844 1.64059,1.6281 3.64574,2.46591 2.00516,0.83781 4.28731,2.16485 5.07143,2.94898 0.78413,0.78412 1.88487,1.42568 2.4461,1.42568 0.56122,0 2.21658,0.92576 3.67857,2.05725 4.5462,3.51846 11.60635,7.90549 12.75317,7.92455 0.60226,0.01 1.9095,0.9182 2.90499,2.0182 0.99549,1.1 2.30273,2.00074 2.90499,2.00165 0.60225,9e-4 3.57001,1.78745 6.59501,3.97011 3.025,2.18265 6.90757,4.611 8.62792,5.39632 1.72036,0.78532 3.43839,1.9302 3.81785,2.54418 0.37946,0.61397 2.35308,1.9648 4.38582,3.00182 2.03274,1.03703 8.64271,6.7681 14.68882,12.73571 8.7889,8.67479 11.76565,12.37095 14.84692,18.43512 l 3.85398,7.5849 -0.39305,15.4151 c -0.28121,11.02881 -0.80463,16.12645 -1.83949,17.91509 -0.79555,1.375 -1.90597,3.7114 -2.46761,5.19201 -2.5952,6.84153 -18.93932,19.76221 -23.26264,18.39004 -0.99283,-0.31511 -3.48053,0.32502 -5.52821,1.42251 -5.33254,2.85807 -14.48307,2.73649 -19.15873,-0.25456 -8.70649,-5.56961 -10.46248,-6.52577 -10.99909,-5.98916 -1.10942,1.10942 -0.55476,8.03735 0.92751,11.58492 3.96596,9.49188 -0.865,20.86302 -10.93783,25.7455 -4.78287,2.31835 -20.95712,2.56724 -26.56217,0.40874 z"
     id="path937"
     inkscape:connector-curvature="0"
     sodipodi:nodetypes="cccccscscscscscccsccssscscscsssscscsscccscsscssccccssssscsccccscccssccccssscccsccccscscscsccsccsssccsscscsccsccsssscccscsccccscsscscsccccscccccssscssscssccsssccsscsssscsscsssscsccssccsccccsscsssscssssscscscsccsscscccsssssscsccccsssccsccscssccccsccsccsccsccscccccsccscscsssscc" />
  <path
     style="fill:#e8cb00;fill-opacity:0.9910714;stroke:none;stroke-width:1px;stroke-linecap:butt;stroke-linejoin:miter;stroke-opacity:1"
     d="m 234.34817,236.07597 c -7.75567,0.97919 -21.1791,5.0539 -24.14511,13.8172 -3.27343,9.6716 -2.34167,27.79236 2.74069,33.6907 5.1437,5.96954 10.74488,14.49844 21.26967,16.97486 10.52478,2.47642 25.28224,2.44273 34.08447,-4.49694 7.59436,-5.98738 9.32026,-12.86645 13.03489,-27.72497 3.71463,-14.85853 0.93503,-24.48198 -4.88546,-27.92712 -13.44659,-7.95901 -42.09915,-4.33373 -42.09915,-4.33373 z"
     id="path941"
     inkscape:connector-curvature="0"
     sodipodi:nodetypes="cssssssc" />
  <path
     style="fill:#00725f;fill-opacity:1;stroke:none;stroke-width:1px;stroke-linecap:butt;stroke-linejoin:miter;stroke-opacity:1"
     d="m 243.34204,251.12614 c 0,0 -12.11784,1.14239 -15.21337,6.71434 -3.09552,5.57194 -2.80806,17.42552 7.62091,22.02352 8.7943,3.87729 17.45397,2.73544 23.03116,-5.24555 5.5053,-7.87812 4.85183,-16.71155 2.31846,-19.90195 -4.88875,-6.15663 -17.75716,-3.59036 -17.75716,-3.59036 z"
     id="path939"
     inkscape:connector-curvature="0"
     sodipodi:nodetypes="cssssc" />
</svg>
