<?xml version="1.0" encoding="UTF-8" standalone="no"?>
<!-- Created with Inkscape (http://www.inkscape.org/) -->

<svg
   xmlns:dc="http://purl.org/dc/elements/1.1/"
   xmlns:cc="http://creativecommons.org/ns#"
   xmlns:rdf="http://www.w3.org/1999/02/22-rdf-syntax-ns#"
   xmlns:svg="http://www.w3.org/2000/svg"
   xmlns="http://www.w3.org/2000/svg"
   xmlns:sodipodi="http://sodipodi.sourceforge.net/DTD/sodipodi-0.dtd"
   xmlns:inkscape="http://www.inkscape.org/namespaces/inkscape"
   version="1.1"
   id="svg815"
   width="288"
   height="152.96001"
   viewBox="0 0 288 152.96001"
   sodipodi:docname="logo.svg"
   inkscape:version="0.92.4 (5da689c313, 2019-01-14)">
  <metadata
     id="metadata821">
    <rdf:RDF>
      <cc:Work
         rdf:about="">
        <dc:format>image/svg+xml</dc:format>
        <dc:type
           rdf:resource="http://purl.org/dc/dcmitype/StillImage" />
        <dc:title />
      </cc:Work>
    </rdf:RDF>
  </metadata>
  <defs
     id="defs819" />
  <sodipodi:namedview
     pagecolor="#ffffff"
     bordercolor="#666666"
     borderopacity="1"
     objecttolerance="10"
     gridtolerance="10"
     guidetolerance="10"
     inkscape:pageopacity="0"
     inkscape:pageshadow="2"
     inkscape:window-width="1920"
     inkscape:window-height="1015"
     id="namedview817"
     showgrid="false"
     inkscape:zoom="4.6388889"
     inkscape:cx="144"
     inkscape:cy="76.480003"
     inkscape:window-x="0"
     inkscape:window-y="0"
     inkscape:window-maximized="1"
     inkscape:current-layer="svg815"
     showguides="false" />
  <g
     id="g2291"
     style="fill:#e1b3d8;fill-opacity:1">
    <path
       d="m 25.164062,136.70898 c -4.417049,-0.10607 -7.005412,2.58765 -6.960937,7.3379 0.03359,3.58782 1.408131,5.89093 4.085937,6.8457 3.563786,1.27067 7.391309,-0.12208 8.789063,-3.19922 0.8867,-1.95207 0.821868,-6.01011 -0.123047,-7.66211 -1.15712,-2.023 -2.670125,-3.03427 -4.882812,-3.26367 -0.310481,-0.0322 -0.613734,-0.0515 -0.908204,-0.0586 z m -0.08008,2.2461 c 2.565171,0.018 4.09961,1.89625 4.09961,5.08203 0,2.24744 -0.832418,3.8067 -2.4375,4.56836 -3.169484,1.50402 -5.945313,-0.63173 -5.945313,-4.57422 0,-3.14734 1.257113,-4.8415 3.75586,-5.05664 0.180014,-0.0155 0.356332,-0.0207 0.527343,-0.0195 z"
       style="fill:#e1b3d8;stroke-width:0.32000002;fill-opacity:1"
       id="path1001" />
    <path
       id="path997"
       d="m 63.52,151.07101 c -0.862611,-0.19165 -0.950893,-0.32406 -0.870224,-1.30525 0.04938,-0.60059 0.129475,-1.13167 0.177994,-1.18019 0.04852,-0.0485 0.640083,0.0642 1.314585,0.2504 1.69752,0.46871 3.179063,0.13302 3.698775,-0.83807 0.607206,-1.13458 0.01907,-2.21378 -1.66833,-3.06141 -3.352749,-1.68415 -4.498986,-3.37612 -3.774451,-5.57148 0.701833,-2.12658 2.673856,-2.98463 5.925677,-2.57834 1.566684,0.19574 1.755974,0.30033 1.755974,0.97019 0,1.52712 -0.212496,1.67429 -1.914109,1.32573 -1.964265,-0.40238 -3.205891,0.055 -3.205891,1.18096 0,0.89229 0.568371,1.4162 2.664483,2.45606 2.326922,1.15436 3.095517,2.2393 3.095517,4.36957 0,1.50529 -0.131034,1.89109 -0.905216,2.66528 -1.383811,1.38381 -3.757466,1.88026 -6.294784,1.31655 z"
       style="fill:#e1b3d8;stroke-width:0.32000002;fill-opacity:1" />
    <path
       id="path995"
       d="m 183.36,151.07501 c -0.57255,-0.15799 -0.82986,-0.47844 -0.90502,-1.12709 -0.14504,-1.25176 0.23951,-1.51217 1.6556,-1.12117 1.56131,0.4311 2.98546,0.10895 3.58876,-0.8118 0.80202,-1.22403 0.16575,-2.15478 -2.39171,-3.49869 -3.14772,-1.65407 -3.894,-3.25758 -2.6906,-5.78116 0.72497,-1.52028 2.60856,-2.25675 5.11122,-1.99845 2.14427,0.22131 2.42067,0.43828 2.16797,1.70178 l -0.19177,0.95888 -1.55432,-0.3184 c -1.11948,-0.22933 -1.78564,-0.213 -2.3812,0.0583 -1.78579,0.81367 -1.22448,2.07507 1.5493,3.48165 2.5266,1.28123 3.08177,2.0834 3.08177,4.45283 0,1.72618 -0.11583,2.13456 -0.79932,2.81804 -1.26707,1.26708 -4.03739,1.79322 -6.24068,1.18523 z"
       style="fill:#e1b3d8;stroke-width:0.32000002;fill-opacity:1" />
    <path
       id="path993"
       d="m 201.2,151.14881 c -0.78977,-0.13616 -0.88,-0.28429 -0.88,-1.4447 0,-1.0495 0.0957,-1.25628 0.50797,-1.09806 1.24187,0.47655 2.96995,0.55869 3.68939,0.17536 1.99386,-1.06236 1.7361,-2.67181 -0.61132,-3.81709 -3.51368,-1.71429 -4.41046,-3.13924 -3.62518,-5.76027 0.59704,-1.99274 2.81401,-2.89282 5.9624,-2.42069 1.46745,0.22006 1.47236,0.22506 1.37473,1.39854 -0.0713,0.85699 -0.2287,1.14557 -0.57799,1.0597 -2.68991,-0.66126 -4.48,-0.24167 -4.48,1.05008 0,0.87773 0.251,1.10881 2.43229,2.23921 2.83203,1.46762 3.70412,3.04196 3.19332,5.76473 -0.41459,2.20996 -3.47239,3.45889 -6.98561,2.85319 z"
       style="fill:#e1b3d8;stroke-width:0.32000002;fill-opacity:1" />
    <path
       d="m 217.79492,136.6875 c -1.48637,0.01 -2.66924,0.36326 -3.81836,1.11328 -2.68541,1.75278 -3.63956,6.58069 -1.96484,9.94141 0.78458,1.57445 2.43264,3.02434 3.84766,3.38476 4.0601,1.03413 7.98333,-1.20472 8.77148,-5.00586 0.9969,-4.80797 -1.26307,-8.83537 -5.23828,-9.33203 -0.57243,-0.0715 -1.1022,-0.10489 -1.59766,-0.10156 z m 0.39649,2.24023 c 2.67697,0.0962 4.64547,2.81781 4.05273,6.32618 -0.1213,0.71799 -0.64646,1.75634 -1.22852,2.42968 -0.83698,0.96824 -1.272,1.19903 -2.45703,1.29883 -1.64971,0.13899 -2.10636,0.001 -3.14648,-0.94336 -2.531,-2.29862 -2.02932,-7.53915 0.83594,-8.73633 0.67037,-0.28009 1.32559,-0.3972 1.94336,-0.375 z"
       style="fill:#e1b3d8;stroke-width:0.32000002;fill-opacity:1"
       id="path991" />
    <path
       id="path987"
       d="m 232.98748,151.12687 c -1.30723,-0.24631 -3.1771,-1.62487 -4.10424,-3.02586 -0.73274,-1.10721 -0.90018,-1.74756 -0.98267,-3.75803 -0.0832,-2.02899 0.0209,-2.657 0.64,-3.85879 1.51081,-2.93282 4.86186,-4.36214 8.55319,-3.64819 1.23857,0.23955 1.47911,0.40781 1.54914,1.08359 0.13638,1.31619 -0.28117,1.66492 -1.48926,1.24377 -1.25552,-0.43768 -3.58177,-0.16977 -4.65993,0.53667 -1.2127,0.79459 -2.09371,2.55086 -2.09371,4.17374 0,1.67671 0.51703,2.79899 1.89154,4.10578 0.85148,0.80954 1.24398,0.94253 2.82857,0.95837 1.01194,0.0101 2.24566,-0.10693 2.7416,-0.26011 0.89033,-0.27499 0.90043,-0.26301 0.8,0.949 -0.0825,0.99535 -0.25301,1.26925 -0.90171,1.44824 -0.89244,0.24625 -3.58547,0.27549 -4.77252,0.0518 z"
       style="fill:#e1b3d8;stroke-width:0.32000002;fill-opacity:1" />
    <path
       id="path985"
       d="m 8.32,148.17005 c 0,-2.84749 -0.010637,-2.88568 -1.3594989,-4.88 C 6.2127766,142.18453 5.5283686,141.20801 5.4395946,141.12001 5.1449011,140.82788 2.88,137.29277 2.88,137.12493 c 0,-0.0907 0.639632,-0.16492 1.4214045,-0.16492 h 1.4214041 l 1.8907271,2.90876 1.890727,2.90877 1.4376583,-2.18877 c 0.790712,-1.20382 1.60932,-2.51276 1.819128,-2.90876 0.30846,-0.5822 0.654914,-0.72 1.81021,-0.72 0.785808,0 1.428741,0.0974 1.428741,0.21654 0,0.20328 -2.836248,4.55662 -3.194662,4.90346 -0.09094,0.088 -0.633338,0.84821 -1.205338,1.68936 -0.98239,1.44463 -1.04,1.68837 -1.04,4.4 v 2.87064 H 9.44 8.32 Z"
       style="fill:#e1b3d8;stroke-width:0.32000002;fill-opacity:1" />
    <path
       d="m 35.199219,136.9043 v 7.06836 7.06836 h 1.28125 1.279297 V 148 144.96094 h 0.898437 c 1.312864,0 1.778306,0.51254 3.046875,3.35937 l 1.140625,2.56055 1.457031,0.0977 c 0.801251,0.0537 1.454572,0.0537 1.451172,0 -0.0034,-0.0536 -0.762729,-1.63514 -1.6875,-3.51368 l -1.68164,-3.41601 0.966796,-0.7793 c 0.86961,-0.70015 0.96875,-0.9602 0.96875,-2.57617 0,-1.53788 -0.128586,-1.92669 -0.886718,-2.68555 -0.84992,-0.85073 -1.038268,-0.89298 -4.560547,-0.99609 z m 2.560547,2.29492 h 1.578125 c 1.657898,0 2.587125,0.55613 2.578125,1.54297 -0.0066,0.71874 -0.335139,1.16689 -1.175782,1.60937 -0.384429,0.20234 -1.212272,0.36914 -1.839843,0.36914 h -1.140625 v -1.75976 z"
       style="fill:#e1b3d8;stroke-width:0.32000002;fill-opacity:1"
       id="path983" />
    <path
       id="path979"
       d="m 48.64,144.00001 v -7.04 h 1.28 1.28 v 2.79333 2.79333 l 2.80633,-2.79333 c 2.77166,-2.75882 2.825948,-2.79333 4.394284,-2.79333 h 1.587952 l -3.272992,3.28417 -3.272988,3.28416 3.358707,3.56805 c 1.847289,1.96243 3.358707,3.65255 3.358707,3.75583 0,0.10329 -0.730134,0.18779 -1.622522,0.18779 -1.552652,0 -1.687008,-0.0721 -3.12,-1.67498 -0.823612,-0.92124 -2.10614,-2.32524 -2.85006,-3.12 l -1.352583,-1.44502 -0.0074,3.12 -0.0074,3.12 h -1.28 -1.28 z"
       style="fill:#e1b3d8;stroke-width:0.32000002;fill-opacity:1" />
    <path
       id="path977"
       d="m 74.24,144.00001 v -7.04 h 1.28 1.28 v 2.72 2.72 h 3.04 3.04 v -2.72 -2.72 h 1.28 1.28 v 7.04 7.04 h -1.28 -1.28 v -3.2 -3.2 H 79.84 76.8 v 3.2 3.2 h -1.28 -1.28 z"
       style="fill:#e1b3d8;stroke-width:0.32000002;fill-opacity:1" />
    <path
       id="path975"
       d="m 89.6,144.00001 v -7.04 h 1.28 1.28 v 7.04 7.04 H 90.88 89.6 Z"
       style="fill:#e1b3d8;stroke-width:0.32000002;fill-opacity:1" />
    <path
       d="m 96.320312,136.9043 v 7.06836 7.06836 h 1.119141 1.121094 V 148 144.96094 h 1.095703 c 1.36032,0 1.99862,0.74626 3.26172,3.82617 l 0.92187,2.25 1.38086,0.002 c 1.64924,0.001 1.65139,0.0237 -0.43554,-4.21289 l -1.36524,-2.77539 0.92969,-0.71289 c 0.83809,-0.64231 0.92969,-0.89798 0.92969,-2.56836 0,-1.49814 -0.1481,-2.02656 -0.77149,-2.75195 -0.75068,-0.87351 -0.87064,-0.90124 -4.47851,-1.00586 z m 2.240235,2.29492 h 1.599613 c 1.74009,0 3.09569,0.89639 2.74414,1.8125 -0.10164,0.26478 -0.1836,0.59975 -0.1836,0.74414 0,0.14439 -0.45355,0.42006 -1.00781,0.61328 -0.55427,0.19322 -1.49035,0.35156 -2.080078,0.35156 h -1.072265 v -1.75976 z"
       style="fill:#e1b3d8;stroke-width:0.32000002;fill-opacity:1"
       id="path973" />
    <path
       id="path969"
       d="m 110.08,144.00006 v -7.04 h 4.02028 4.02027 l -0.10027,1.04 -0.10028,1.04 -2.8,0.0925 -2.8,0.0925 v 1.58754 1.58754 l 2,0.0369 c 3.02471,0.0558 2.95081,0.0278 3.06028,1.16309 l 0.10027,1.04 H 114.90028 112.32 v 2.08 2.08 h 2.88 2.88 v 1.12 1.12 h -4 -4 z"
       style="fill:#e1b3d8;stroke-width:0.32000002;fill-opacity:1" />
    <path
       d="M 128.64062,136.96094 V 144 v 7.04102 h 3.17188 c 6.07131,0 8.47656,-1.99771 8.47656,-7.04102 0,-2.62644 -0.41611,-3.73477 -1.9414,-5.18359 -1.52183,-1.44555 -2.96135,-1.85547 -6.49805,-1.85547 z m 2.24024,2.23828 h 1.96094 c 2.56164,0 3.87152,0.77675 4.61914,2.73437 0.86929,2.27619 0.47624,4.1726 -1.17578,5.66602 -1.24139,1.1222 -1.46051,1.20117 -3.36719,1.20117 h -2.03711 V 144 Z"
       style="fill:#e1b3d8;stroke-width:0.32000002;fill-opacity:1"
       id="path967" />
    <path
       d="m 149.39453,136.99023 c -0.97932,-0.0386 -1.09452,0.32823 -2.64453,4.04297 -0.45723,1.09579 -1.19132,2.77735 -1.63086,3.73828 -0.43954,0.96093 -0.79883,1.82387 -0.79883,1.91797 0,0.0941 -0.36078,0.95799 -0.80078,1.91993 -0.44,0.96194 -0.79883,1.90257 -0.79883,2.08984 0,0.18728 0.54189,0.3418 1.20508,0.3418 1.15616,0 1.23637,-0.0742 1.96484,-1.76172 l 0.75977,-1.75977 h 3.13281 3.13282 l 0.625,1.67969 c 0.60262,1.62034 0.67064,1.6844 1.9414,1.7793 0.72466,0.0541 1.31836,-0.0366 1.31836,-0.20118 0,-0.33625 -0.69211,-2.10096 -1.62109,-4.13476 -0.34079,-0.74609 -0.61914,-1.43751 -0.61914,-1.53711 0,-0.0996 -0.30848,-0.85725 -0.68555,-1.68359 -0.37708,-0.82635 -1.13726,-2.58235 -1.68945,-3.90235 -0.99984,-2.39005 -1.00973,-2.40029 -2.31055,-2.49609 -0.18182,-0.0134 -0.34057,-0.0277 -0.48047,-0.0332 z m 0.15039,2.87305 c 0.20189,0.005 0.6703,0.88044 1.1836,2.28906 0.4022,1.10374 0.85329,2.1453 1.00195,2.3125 0.14865,0.1672 0.26953,0.48995 0.26953,0.71875 0,0.30232 -0.62231,0.41602 -2.27539,0.41602 -2.27294,0 -2.27309,-6.9e-4 -2.07031,-0.80859 0.11161,-0.44469 0.55867,-1.58703 0.99414,-2.53907 0.43548,-0.95203 0.79101,-1.89218 0.79101,-2.08984 0,-0.20501 0.0382,-0.30037 0.10547,-0.29883 z"
       style="fill:#e1b3d8;stroke-width:0.32000002;fill-opacity:1"
       id="path963" />
    <path
       id="path959"
       d="m 159.68,144.00006 v -7.04 h 1.12 1.12 v 5.92 5.92 h 2.88 2.88 v 1.12 1.12 h -4 -4 z"
       style="fill:#e1b3d8;stroke-width:0.32000002;fill-opacity:1" />
    <path
       id="path957"
       d="m 170.88,144.00006 v -7.04 h 4.18028 4.18027 l -0.10027,1.04 -0.10028,1.04 -2.8,0.0925 -2.8,0.0925 v 1.57408 1.57408 l 2.48,0.0935 2.48,0.0935 0.10028,1.04 0.10027,1.04 H 176.02028 173.44 v 2.06754 2.06754 l 2.8,0.0925 2.8,0.0925 0.10028,1.04 0.10027,1.04 H 175.06028 170.88 Z"
       style="fill:#e1b3d8;stroke-width:0.32000002;fill-opacity:1" />
    <path
       id="path955"
       d="m 241.6,144.00006 v -7.04 h 1.28 1.28 v 7.04 7.04 h -1.28 -1.28 z"
       style="fill:#e1b3d8;stroke-width:0.32000002;fill-opacity:1" />
    <path
       id="path953"
       d="m 248.64,144.00006 v -7.04 h 4.18028 4.18027 l -0.10027,1.04 -0.10028,1.04 -2.8,0.0925 -2.8,0.0925 v 1.69725 1.69725 l 2.48,-0.0297 2.48,-0.0297 0.10028,1.04 0.10027,1.04001 H 253.78028 251.2 v 2.08 2.08 h 2.88 2.88 v 1.12 1.12 h -4.16 -4.16 v -7.04 z"
       style="fill:#e1b3d8;stroke-width:0.32000002;fill-opacity:1" />
    <path
       id="path951"
       d="m 263.64209,145.52006 c -0.0209,-3.036 -0.0145,-5.7 0.014,-5.92 0.0373,-0.28706 -0.58449,-0.4 -2.20208,-0.4 H 259.2 v -1.12 -1.12 h 5.46028 5.46027 l -0.10027,1.04 c -0.10027,1.03995 -0.10038,1.04 -2.10028,1.13527 l -2,0.0953 v 5.90473 5.90473 h -1.12 -1.12 z"
       style="fill:#e1b3d8;stroke-width:0.32000002;fill-opacity:1" />
    <path
       id="path949"
       d="m 276.8,148.14269 v -2.89733 l -2.4081,-3.53885 c -3.43378,-5.04614 -3.33063,-4.7465 -1.63382,-4.7465 h 1.4206 l 1.93862,2.89346 1.93862,2.89345 1.85204,-2.88327 c 1.85123,-2.88202 1.85264,-2.88329 3.21204,-2.89346 1.35197,-0.0101 1.66204,0.30432 1.02884,1.04333 -0.18214,0.21257 -1.33414,1.87015 -2.56,3.68352 l -2.22884,3.29703 v 3.02297 3.02297 h -1.28 -1.28 z"
       style="fill:#e1b3d8;stroke-width:0.32000002;fill-opacity:1" />
  </g>
  <g
     id="g2265"
     style="fill:#238674;fill-opacity:1">
    <path
       id="path947"
       d="m 263.2,128.95727 c -1.056,-0.1325 -2.496,-0.39074 -3.2,-0.57387 -5.97906,-1.55533 -9.06438,-2.28985 -9.64455,-2.29606 -1.71161,-0.0183 -2.19932,-1.28741 -4.42995,-11.52733 -0.28754,-1.32 -0.65841,-2.92071 -0.82415,-3.55713 -0.65761,-2.52511 -0.17876,-3.48287 1.74133,-3.48287 0.76295,0 2.43732,1.67554 2.43732,2.43902 0,0.57087 1.98202,4.13091 3.20718,5.76064 1.32962,1.76866 4.73428,5.24034 5.13919,5.24034 0.13635,0 0.4382,0.18085 0.67077,0.4019 1.01658,0.96619 4.25011,2.19456 6.68233,2.53852 7.90812,1.11836 13.12766,-2.5175 13.15372,-9.16268 0.0192,-4.88347 -2.12717,-7.02444 -9.81319,-9.78871 -1.584,-0.56968 -3.024,-1.14264 -3.2,-1.27324 -0.176,-0.13061 -0.68,-0.34501 -1.12,-0.47645 -1.25119,-0.37378 -7.50762,-3.436307 -7.62667,-3.73327 -0.0587,-0.146339 -0.29482,-0.266074 -0.52479,-0.266074 -0.61005,0 -4.29178,-2.774617 -5.69736,-4.293632 -2.57679,-2.784746 -3.92722,-7.301082 -3.65181,-12.213018 0.19217,-3.427456 0.56991,-4.949322 1.97904,-7.973351 1.24377,-2.669146 2.45398,-4.240573 4.5384,-5.892996 3.35445,-2.659241 7.03006,-3.867005 11.76851,-3.867005 3.46352,0 6.42169,0.666007 10.47656,2.358708 3.22425,1.345952 3.64276,1.384729 5.55298,0.514521 0.8895,-0.405213 1.71955,-0.571529 2.22245,-0.445309 l 0.80269,0.201463 0.008,4.365309 c 0.004,2.400918 0.1435,4.941309 0.30955,5.645309 0.57184,2.424314 0.76864,6.82281 0.32898,7.352567 -1.0023,1.207693 -3.28108,0.188266 -3.72057,-1.664426 -0.6647,-2.802045 -3.88821,-7.807744 -6.27975,-9.751664 -3.26466,-2.65362 -6.14533,-3.767601 -9.75672,-3.773015 -3.96613,-0.006 -7.06006,1.795926 -8.57221,4.992365 -0.92712,1.959773 -1.02753,3.963584 -0.28887,5.765095 0.49965,1.218586 2.87334,3.959079 3.42918,3.959079 0.15619,0 0.66621,0.26272 1.13337,0.583824 0.46717,0.3211 4.0174,1.778502 7.8894,3.238665 3.872,1.46016 7.976,3.164225 9.12,3.786804 2.13342,1.161033 6.4,5.17136 6.4,6.015613 0,0.250301 0.10885,0.455094 0.24189,0.455094 0.27616,0 0.76918,1.050865 1.75061,3.731464 0.86944,2.3747 1.16136,8.504 0.54438,11.42999 -1.43526,6.80664 -5.53393,11.75205 -11.53441,13.9173 -3.46752,1.25124 -8.04606,1.76976 -11.64247,1.31851 z"
       style="fill:#238674;stroke-width:0.32000002;fill-opacity:1" />
    <path
       d="m 36.394531,66.167969 c -3.695434,-0.02288 -10.302339,0.03387 -22.996093,0.148437 -12.4961733,0.112787 -12.4375005,0.103047 -12.4375005,2.00586 0,1.100515 1.0041999,2.078125 2.1367187,2.078125 1.0368657,0 3.4046753,1.081368 4.3144532,1.970703 2.0754503,2.028816 2.0273437,1.453592 2.0273437,24.589844 0,22.480382 -0.00675,22.603722 -1.6328125,24.830082 -0.3982029,0.54521 -1.5168297,1.39131 -2.484375,1.88086 -2.124244,1.07476 -2.7479026,2.17525 -2.109375,3.71679 l 0.4082032,0.99024 3.0703124,-0.19336 c 7.6683828,-0.48357 15.4579298,-0.56172 19.7089848,-0.19727 3.783327,0.32436 5.130042,0.30578 8.666015,-0.11328 2.302905,-0.27293 4.966827,-0.70195 5.919922,-0.95312 2.696048,-0.7105 7.436543,-2.54226 7.97461,-3.08204 0.088,-0.0883 0.663296,-0.43481 1.279296,-0.77148 5.28769,-2.88992 11.690152,-10.49259 13.863282,-16.46094 1.353977,-3.7186 1.489083,-4.28245 2.037109,-8.466795 0.508699,-3.884116 0.507308,-4.322443 -0.03516,-8.298828 -0.315014,-2.309148 -0.690766,-4.497568 -0.833985,-4.861328 -0.466637,-1.18521 -0.726163,-1.933649 -0.808593,-2.324219 -0.09525,-0.451302 -1.509766,-3.384553 -1.744141,-3.617188 -0.08866,-0.088 -0.589899,-0.792585 -1.115234,-1.566406 -1.907949,-2.810417 -5.859077,-6.328524 -6.730469,-5.99414 -0.260563,0.09999 -0.482431,0.438427 -0.494141,0.751953 -0.07428,1.991127 -3.327725,5.477723 -5.761718,6.175781 l -1.017579,0.291016 0.166016,-1.507813 c 0.09054,-0.829987 0.07164,-3.300361 -0.04102,-5.488281 l -0.205078,-3.976563 -0.958984,-0.267578 c -0.528,-0.146797 -1.319766,-0.335299 -1.759766,-0.417969 -0.44,-0.08266 -1.736859,-0.328699 -2.880859,-0.546874 -1.046851,-0.199649 -1.829956,-0.301338 -5.525391,-0.324219 z m -5.513672,4.732422 c 4.35111,0.02368 6.597164,0.628783 9.759766,2.626953 1.844672,1.165488 4.868329,4.036992 5.972656,5.671875 4.474518,6.624241 6.328507,17.070227 4.601563,25.921871 -0.809875,4.15112 -0.998998,4.7506 -2.464844,7.73633 -1.520567,3.09719 -5.018478,6.89889 -7.519531,8.17578 -2.408608,1.2297 -3.28324,1.51788 -6.191407,2.03321 -1.408,0.2495 -2.702906,0.43526 -2.878906,0.41406 -3.659348,-0.44175 -6.19584,-1.42932 -7.164062,-2.78906 -1.607587,-2.25765 -1.629113,-2.59 -1.632813,-24.439457 -0.0034,-19.786878 0.01647,-20.439782 0.654297,-22.144531 0.495308,-1.323828 0.948422,-1.9379 1.839844,-2.492188 1.068898,-0.664646 1.553208,-0.733723 5.023437,-0.714843 z"
       style="fill:#238674;stroke-width:0.32000002;fill-opacity:1"
       id="path945" />
    <path
       d="m 96.859375,65.119141 c -0.965853,0 -1.31463,0.16752 -1.677734,0.800781 -0.443005,0.772605 -3.536455,7.244619 -5.50586,11.519531 -0.52703,1.144 -1.751986,3.735766 -2.720703,5.759766 -0.968716,2.024001 -2.372472,4.976547 -3.11914,6.560547 -0.746665,1.584 -2.289541,4.825171 -3.429688,7.201172 -1.140147,2.376 -2.434585,5.110122 -2.876953,6.078122 -0.811968,1.77676 -2.139776,4.58214 -5.572266,11.77735 -1.032761,2.16488 -1.876953,4.07311 -1.876953,4.24023 0,0.16712 -0.144312,0.30274 -0.320312,0.30274 -0.176,0 -0.320313,0.17054 -0.320313,0.3789 0,0.55728 -2.888103,3.24575 -4.400391,4.0957 -0.719295,0.40427 -1.388561,1.03863 -1.488281,1.41016 -0.363764,1.35523 -0.201814,2.13224 0.501953,2.39258 0.381488,0.14115 3.586582,0.20076 7.121094,0.13086 3.534512,-0.0699 7.289703,0.008 8.345703,0.17383 3.150902,0.49415 5.486497,0.44515 6.056641,-0.125 0.626284,-0.62628 0.655469,-2.18048 0.05078,-2.78516 -0.249693,-0.2497 -1.149693,-0.62853 -2,-0.8418 -0.850307,-0.21327 -2.080354,-0.52696 -2.732422,-0.69726 -2.2487,-0.58729 -4.09375,-2.86702 -4.09375,-5.05664 0,-1.31828 2.405081,-7.42424 3.570313,-9.06446 0.345149,-0.48584 1.139368,-1.01302 1.802734,-1.19726 1.455229,-0.4042 17.333531,-0.43371 19.050782,-0.0352 0.67323,0.15625 1.4303,0.5495 1.68359,0.87305 0.62191,0.79445 1.73242,3.17003 1.73242,3.70703 0,0.23846 0.12208,0.56913 0.27149,0.73633 0.53224,0.59559 1.96875,4.99889 1.96875,6.03515 0,1.6518 -1.17981,3.05953 -3.60742,4.30274 -2.2354,1.14477 -2.75246,1.86308 -2.32032,3.22461 0.37028,1.16662 1.28913,1.40504 3.64063,0.94726 2.27304,-0.4425 9.00459,-0.54563 18.55078,-0.28515 5.53503,0.15103 5.88759,0.12541 6.31836,-0.46094 1.00629,-1.36972 0.12169,-3.11939 -1.78906,-3.53906 -1.79375,-0.39397 -3.3902,-2.2338 -5.22071,-6.01172 -1.67598,-3.45903 -2.14927,-4.46756 -4.37695,-9.34766 -0.56238,-1.232 -1.42431,-3.10415 -1.91601,-4.16015 -0.49169,-1.056 -1.20394,-2.61315 -1.58399,-3.46094 -0.38005,-0.847787 -1.40321,-3.051349 -2.27344,-4.896486 -0.87023,-1.845136 -1.58203,-3.405756 -1.58203,-3.466796 0,-0.06105 -0.80455,-1.816315 -1.78711,-3.902344 -0.98257,-2.086032 -2.04757,-4.370219 -2.36718,-5.074219 C 106.2468,82.655375 105.55178,81.144 105.02148,80 c -0.5303,-1.144 -1.5564,-3.376937 -2.27929,-4.960938 -4.723768,-10.350784 -4.468841,-9.919921 -5.882815,-9.919921 z M 92.423828,84 94.212891,87.771484 C 95.196114,89.845827 96,91.618538 96,91.710938 c 0,0.0924 0.548869,1.347807 1.220703,2.789062 2.598032,5.5735 3.095227,6.96444 2.597656,7.2793 -0.522864,0.33091 -15.119206,0.414 -15.445312,0.0879 -0.307445,-0.30744 -0.262688,-1.30529 0.08789,-1.951174 0.165881,-0.305613 0.802186,-1.635079 1.412109,-2.955078 0.609923,-1.32 1.984444,-4.237167 3.056641,-6.482422 1.072195,-2.245254 1.950211,-4.189567 1.951171,-4.320313 8.74e-4,-0.130746 0.349531,-0.669265 0.773438,-1.197265 z"
       style="fill:#238674;stroke-width:0.32000002;fill-opacity:1"
       id="path941" />
    <path
       id="path937"
       d="m 134.95827,127.7665 c -0.56698,-0.62651 -0.74146,-2.20313 -0.31337,-2.83167 0.1293,-0.18985 1.0271,-0.76309 1.9951,-1.27387 2.16774,-1.14384 3.09089,-2.07335 3.87431,-3.90099 0.57426,-1.33969 0.60541,-2.52011 0.60033,-22.746495 l -0.005,-21.33347 -0.88234,-1.752448 c -0.90674,-1.800903 -2.39434,-3.095732 -3.88792,-3.384106 -2.36846,-0.45729 -3.3721,-0.960259 -3.68205,-1.845229 -0.23796,-0.679453 -0.19565,-1.113376 0.17162,-1.76 l 0.48745,-0.858218 3.82198,0.141709 c 6.26445,0.232272 15.72693,0.174714 19.70388,-0.119853 l 3.72188,-0.275673 0.54279,0.828406 c 0.29854,0.455626 0.49569,1.155923 0.43812,1.556218 -0.1061,0.737667 -0.49024,1.00208 -3.23457,2.226429 -1.1077,0.494189 -1.74792,1.054595 -2.32,2.030768 l -0.79011,1.348227 v 22.596827 c 0,23.704398 -0.005,23.622138 1.41981,25.026948 0.58463,0.57655 1.04608,0.63582 4.65458,0.59783 4.96102,-0.0522 8.02171,-0.81498 12.19433,-3.03896 2.12416,-1.13217 5.43807,-4.21133 6.24005,-5.79803 1.24462,-2.46243 3.07595,-3.25035 4.11308,-1.76964 1.54058,2.19948 -1.07347,9.83223 -4.57684,13.36388 -3.00422,3.02846 -5.70476,3.77619 -11.65913,3.22817 -6.12759,-0.56396 -19.8344,-0.76355 -24.06588,-0.35044 -7.88675,0.76998 -7.94907,0.77066 -8.56173,0.0937 z"
       style="fill:#238674;stroke-width:0.32000002;fill-opacity:1" />
    <path
       id="path935"
       d="m 187.43827,127.7665 c -0.57319,-0.63337 -0.70899,-1.56138 -0.36112,-2.4679 0.10842,-0.28256 1.17938,-1.08741 2.3799,-1.78855 1.20051,-0.70114 2.46346,-1.66973 2.80654,-2.15242 1.42415,-2.0037 1.45765,-2.48508 1.58654,-22.797624 0.12951,-20.410263 0.0224,-22.498574 -1.29207,-25.187092 -0.71693,-1.466381 -2.43721,-2.515309 -5.51567,-3.363143 -1.93113,-0.53185 -2.55104,-1.627143 -1.73844,-3.071549 0.47566,-0.845488 0.52771,-0.857152 3.50944,-0.786362 10.93807,0.25969 24.24548,0.188285 32.61398,-0.174995 8.77895,-0.381101 9.78366,-0.373514 10.11264,0.07639 0.45956,0.628493 0.92221,6.199729 0.93229,11.226753 l 0.008,3.84 -1.22233,0.10065 c -1.51141,0.124451 -2.06453,-0.308531 -2.31581,-1.812803 -0.71442,-4.276849 -2.46171,-6.51491 -5.90187,-7.559534 -1.72624,-0.524182 -3.0375,-0.633024 -7.70982,-0.639958 -6.19046,-0.0092 -6.41324,0.05195 -7.21975,1.981366 -0.59617,1.426231 -0.62285,17.30621 -0.0304,18.112066 0.63417,0.862646 3.91567,1.302652 6.60412,0.885526 3.75633,-0.582816 5.84614,-1.937811 6.9516,-4.507312 1.40193,-3.258567 1.48191,-3.354 2.89729,-3.457082 1.0586,-0.07709 1.36883,0.02173 1.50699,0.48 0.0957,0.317395 0.14657,3.817082 0.11309,7.777082 -0.0439,5.189623 0.0658,7.804671 0.39283,9.365571 0.60915,2.90747 0.2867,3.87732 -1.33409,4.01269 -1.0293,0.086 -1.23877,-0.0221 -1.67417,-0.86411 -0.27371,-0.5293 -0.49766,-1.34603 -0.49766,-1.81496 0,-1.24576 -1.46144,-3.717146 -2.65007,-4.481434 -1.6103,-1.035417 -3.87685,-1.519545 -7.25602,-1.549853 -3.4064,-0.03056 -4.5047,0.318916 -5.09856,1.622311 -0.23461,0.514909 -0.35535,3.962866 -0.35535,10.147836 0,13.27233 -0.0376,13.19493 6.37579,13.11685 5.67337,-0.0691 9.98946,-1.43105 14.08173,-4.4436 1.84052,-1.35492 4.82186,-4.73157 4.82228,-5.46171 6.4e-4,-1.19012 2.40163,-1.84245 3.33734,-0.90674 1.16621,1.16621 0.40894,5.74422 -1.60484,9.70206 -1.90822,3.75036 -4.29522,5.98108 -7.41213,6.92688 -1.72157,0.5224 -6.16354,0.59387 -9.52017,0.15318 -4.11397,-0.54011 -17.63168,-0.74213 -21.76,-0.32519 -7.56842,0.76438 -7.945,0.76819 -8.56173,0.0867 z"
       style="fill:#238674;stroke-width:0.32000002;fill-opacity:1" />
    <path
       id="path933"
       d="m 48.822352,74.320005 c 0.108531,-1.364 0.03168,-5 -0.170774,-8.080001 -0.900935,-13.705994 -0.809664,-16.305262 0.429308,-12.226253 0.251632,0.828438 0.989789,2.874253 1.640346,4.546253 2.419427,6.218183 2.522192,6.638771 2.541085,10.400001 0.0225,4.479152 -0.713767,6.178262 -3.24128,7.480013 -1.308288,0.673811 -1.407079,0.499088 -1.198685,-2.120013 z"
       style="fill:#238674;stroke-width:0.32000002;fill-opacity:1" />
  </g>
  <g
     id="g2305"
     style="fill:#59b491;fill-opacity:1">
    <path
       id="path931"
       d="m 54.4,65.690702 c 0,-0.66313 -0.49929,-2.070106 -2.814352,-7.930698 -3.258342,-8.248522 -3.753706,-11.572974 -2.622499,-17.600001 0.165165,-0.88 0.529504,-3.079514 0.809641,-4.887812 0.48401,-3.124314 1.743604,-6.792189 2.332522,-6.792189 0.799197,0 1.127302,2.980525 1.180093,10.720001 0.03002,4.4 0.214557,9.08 0.410096,10.4 1.113974,7.519934 1.702163,16.640001 1.073181,16.640001 -0.202775,0 -0.368682,-0.247187 -0.368682,-0.549302 z"
       style="fill:#59b491;stroke-width:0.32000002;fill-opacity:1" />
    <path
       d="m 68.458984,37.919922 c -3.64186,0 -4.164698,0.07487 -5.550781,0.787109 -1.726416,0.887126 -3.8744,3.136337 -4.59375,4.8125 -1.387879,3.23392 -1.683426,7.023277 -0.820312,10.494141 1.113203,4.476567 4.172951,7.3422 8.746093,8.191406 0.44,0.0817 2.312157,0.100283 4.160157,0.03906 3.158195,-0.104624 5.917278,-0.711998 6.958984,-1.529297 0.408525,-0.320519 0.592442,-5.057946 0.210937,-5.439453 -0.10486,-0.104858 -0.646031,0.06376 -1.201171,0.375 -2.887094,1.618653 -7.488764,2.257788 -9.398438,1.304687 -1.811558,-0.904128 -3.611328,-3.153099 -3.611328,-4.513672 0,-0.154509 3.622243,-0.28125 8.048828,-0.28125 h 8.048828 l -0.203125,-3.121094 c -0.358985,-5.507078 -1.947049,-8.519818 -5.49414,-10.429687 -1.116413,-0.601114 -1.793771,-0.689453 -5.300782,-0.689453 z m -0.324218,4.679687 c 0.273382,-0.0048 0.561465,0.0061 0.865234,0.03125 1.392013,0.115437 1.867302,0.314919 2.539062,1.074219 0.9229,1.043158 1.421876,2.107182 1.421876,3.035156 -10e-7,0.584708 -0.267947,0.619141 -4.800782,0.619141 -3.089622,0 -4.800781,-0.117255 -4.800781,-0.330078 0,-0.181853 0.352678,-1.025403 0.783203,-1.875 0.881208,-1.738982 2.078509,-2.521255 3.992188,-2.554688 z"
       style="fill:#59b491;stroke-width:0.32000002;fill-opacity:1"
       id="path929" />
    <path
       id="path925"
       d="M 124.48047 27.519531 L 124.47461 34 C 124.47192 37.564 124.36369 40.327881 124.23438 40.142578 C 123.60138 39.235442 121.59342 38.102486 120.1582 37.84375 C 114.78599 36.875257 110.53211 38.962447 108.75781 43.4375 C 107.86335 45.693449 107.52779 52.268484 108.18359 54.691406 C 109.15054 58.263915 111.25317 60.835909 114.01758 61.826172 C 117.26685 62.990121 122.13577 62.184542 124.17383 60.146484 C 124.79655 59.524186 124.80078 59.528535 124.80078 60.640625 L 124.80078 61.759766 L 128 61.759766 L 131.19922 61.759766 L 131.19922 44.640625 L 131.19922 27.519531 L 127.83984 27.519531 L 124.48047 27.519531 z M 119.29492 42.880859 C 120.71857 42.880859 121.05237 43.019511 122.16797 44.080078 C 124.40562 46.207332 125.09407 50.012253 123.85352 53.40625 C 123.10724 55.447985 122.46648 56.2167 121.00781 56.826172 C 119.63627 57.399246 118.80962 57.389902 117.59961 56.787109 C 114.14149 55.064372 113.44612 47.122488 116.48633 44.080078 C 117.55449 43.011147 117.86005 42.880859 119.29492 42.880859 z "
       style="fill:#59b491;stroke-width:0.32000002;fill-opacity:1" />
    <path
       id="path921"
       d="m 137.42845,62.105274 c -3.16469,-0.508009 -3.03148,-0.350601 -2.81246,-3.323216 0.10625,-1.442131 0.24043,-2.677366 0.29818,-2.744966 0.0577,-0.0676 0.98841,0.207462 2.06814,0.611254 2.61976,0.979725 5.37524,1.027229 6.59872,0.113763 0.71635,-0.534825 0.89897,-0.924189 0.89897,-1.91664 0,-1.158835 -0.10016,-1.294265 -1.44,-1.947056 -0.792,-0.385875 -2.42663,-1.011549 -3.63251,-1.390384 C 135.68261,50.33783 134.4,48.717763 134.4,45.183065 c 0,-2.791641 0.27905,-3.553478 1.86548,-5.093062 1.79734,-1.744256 3.89144,-2.404519 7.49866,-2.364295 3.22735,0.03599 5.55548,0.291274 6.33679,0.694845 0.42947,0.22183 0.45715,0.59265 0.19399,2.599098 -0.16882,1.287193 -0.32896,2.371072 -0.35587,2.408617 -0.0269,0.03755 -0.74908,-0.142454 -1.60484,-0.4 -2.37919,-0.716032 -5.3358,-0.619372 -6.38873,0.208861 -0.61817,0.486253 -0.83329,0.914723 -0.76315,1.52 0.10876,0.938589 1.2357,1.596647 5.26664,3.075383 2.74931,1.00857 3.70547,1.780662 4.56664,3.687491 1.7183,3.804737 -0.0593,8.220599 -4.01327,9.96963 -1.61399,0.713945 -6.86,1.051286 -9.57389,0.615641 z"
       style="fill:#59b491;stroke-width:0.32000002;fill-opacity:1" />
    <path
       d="m 177.14453,37.919922 c -3.91251,0 -4.29957,0.05758 -5.9668,0.876953 -2.3434,1.151693 -3.92952,2.783358 -5.18945,5.339844 -0.9248,1.876483 -1.03956,2.423638 -1.13476,5.455078 -0.0886,2.821021 0.005,3.663136 0.57226,5.177734 1.34107,3.582199 4.08463,6.123731 7.70508,7.138672 2.43042,0.681331 6.92889,0.467551 9.31445,-0.441406 2.27482,-0.866755 4.74371,-3.141066 5.9336,-5.466797 0.85084,-1.663018 0.90039,-1.989153 0.90039,-5.919922 0,-3.91439 -0.0521,-4.268106 -0.90039,-5.996094 -1.14923,-2.340947 -2.82264,-4.027045 -5.1836,-5.220703 -1.78385,-0.901891 -2.0531,-0.943359 -6.05078,-0.943359 z m -0.10156,4.960937 c 1.77374,0 3.949,1.009715 4.25586,1.976563 0.10178,0.320669 0.29562,0.582031 0.43164,0.582031 0.51361,0 1.08374,3.49952 0.88281,5.421875 -0.34022,3.255034 -1.21877,4.80341 -3.34766,5.904297 -1.78743,0.924316 -3.97197,0.502665 -5.67773,-1.095703 -1.3404,-1.256013 -1.82624,-2.74935 -1.86914,-5.75 -0.0336,-2.350208 0.0705,-2.914912 0.76172,-4.148438 1.1017,-1.966007 2.56214,-2.890625 4.5625,-2.890625 z"
       style="fill:#59b491;stroke-width:0.32000002;fill-opacity:1"
       id="path919" />
    <path
       id="path915"
       d="m 228.32,62.24273 c -0.176,-0.05871 -0.7049,-0.191299 -1.17534,-0.294643 -1.19915,-0.263424 -2.72695,-1.632893 -3.55697,-3.188336 -0.6553,-1.228035 -0.71174,-1.825658 -0.81215,-8.599748 l -0.10792,-7.28 H 220.45381 218.24 v -2.4 -2.400001 h 2.22598 2.22598 l 0.094,-2.32 0.094,-2.32 3.03369,-1.013341 c 1.66853,-0.557337 3.14453,-0.944838 3.28,-0.861114 0.13547,0.08372 0.24631,1.583729 0.24631,3.333342 v 3.181113 h 2.56 2.56 v 2.400001 2.4 H 232 229.44 v 6.356365 6.356362 l 0.84364,0.843638 c 0.91847,0.918468 2.12216,1.082426 3.46265,0.471655 0.44903,-0.204589 0.89069,-0.297712 0.98146,-0.206938 0.0908,0.09078 0.25378,1.315786 0.36224,2.722247 l 0.1972,2.5572 -1.7236,0.206954 c -1.77587,0.213232 -4.67831,0.243811 -5.24359,0.05524 z"
       style="fill:#59b491;stroke-width:0.32000002;fill-opacity:1" />
    <path
       d="m 274.37305,37.796875 c -0.46976,-0.0013 -0.97225,0.0108 -1.51367,0.0332 -3.02803,0.125303 -3.7766,0.263129 -4.85938,0.904297 -3.82008,2.262055 -5.59375,5.859265 -5.59375,11.345703 0,5.38665 1.67725,8.675679 5.51172,10.816406 0.83449,0.465878 2.20155,0.989316 3.03906,1.16211 2.53135,0.522256 7.95627,0.177013 10.08203,-0.640625 l 1.8418,-0.707031 v -2.84375 -2.84375 l -0.93555,0.482421 c -3.83686,1.984119 -7.7171,2.434011 -10.17578,1.179688 -1.47973,-0.754903 -2.96875,-2.662474 -2.96875,-3.800781 v -0.72461 h 8.0332 8.03321 l -0.22266,-2.640625 c -0.38914,-4.645696 -1.37258,-7.253448 -3.5293,-9.347656 -1.79397,-1.741989 -3.45388,-2.366054 -6.74218,-2.375 z m -0.57032,4.75 c 0.61927,-0.0082 1.24015,0.09043 1.82422,0.3125 1.01157,0.384595 2.32012,2.124054 2.60352,3.460937 l 0.2207,1.039063 H 273.625 c -5.37845,0 -5.40722,-0.01459 -4.31836,-2.197266 0.79525,-1.594113 2.63829,-2.590758 4.49609,-2.615234 z"
       style="fill:#59b491;stroke-width:0.32000002;fill-opacity:1"
       id="path913" />
    <path
       id="path909"
       d="M 9.6,45.760003 V 29.760002 h 8.96 8.96 v 2.72 2.72 h -5.6 -5.6 v 3.680001 3.68 h 5.44 5.44 v 2.72 2.72 h -5.44 -5.44 v 6.880001 6.88 H 12.96 9.6 Z"
       style="fill:#59b491;stroke-width:0.32000002;fill-opacity:1" />
    <path
       id="path907"
       d="M 30.72,49.920003 V 38.080002 h 2.88 2.88 l 0.0013,2.000001 0.0013,2 0.648691,-1.063994 c 1.426531,-2.339818 2.827152,-3.162944 5.602183,-3.292317 l 1.906732,-0.0889 0.09051,3.391245 0.09051,3.391245 -1.283008,-0.325661 c -2.590253,-0.657478 -4.52569,0.369376 -5.557181,2.948378 -0.461574,1.154058 -0.613965,2.758506 -0.76743,8.080001 l -0.191658,6.64 H 33.870954 30.72 Z"
       style="fill:#59b491;stroke-width:0.32000002;fill-opacity:1" />
    <path
       id="path905"
       d="M 82.56,49.920003 V 38.080002 h 3.2 3.2 v 1.323636 1.323638 l 0.865459,-0.865459 c 1.664442,-1.664445 3.353175,-2.171171 6.833168,-2.050391 2.871853,0.09968 3.239911,0.187271 4.489993,1.068577 0.86339,0.608684 1.69283,1.601756 2.26654,2.713667 l 0.90484,1.753664 v 9.206337 9.206333 h -3.2 -3.2 v -7.690279 c 0,-6.196637 -0.0956,-7.919076 -0.492205,-8.868288 -0.817609,-1.956813 -1.326093,-2.321434 -3.237392,-2.321434 -1.551734,0 -1.822435,0.112032 -2.918083,1.20768 C 89.479456,45.880547 89.28,46.956704 89.28,54.83713 v 6.922874 h -3.36 -3.36 z"
       style="fill:#59b491;stroke-width:0.32000002;fill-opacity:1" />
    <path
       id="path903"
       d="m 194.88,52.320003 v -9.44 h -2.24 -2.24 v -2.4 -2.400001 h 2.24 2.24 v -2.18192 c 0,-5.154907 2.26274,-8.359475 6.29444,-8.914393 0.73393,-0.101019 2.41399,-0.08251 3.73344,0.04114 l 2.39901,0.224806 -0.15963,2.455186 c -0.22157,3.407945 -0.19558,3.360578 -1.53667,2.800233 -2.45047,-1.023873 -3.7729,0.09036 -3.95615,3.333286 l -0.12666,2.241667 h 2.59611 2.59611 v 2.400001 2.4 h -2.56 -2.56 v 9.44 9.440001 h -3.36 -3.36 z"
       style="fill:#59b491;stroke-width:0.32000002;fill-opacity:1" />
    <path
       id="path901"
       d="M 237.12,44.640003 V 27.520002 h 3.36 3.36 v 6.54472 6.544721 l 0.83334,-0.772314 c 1.56698,-1.452227 3.29981,-2.055229 6.04968,-2.105203 4.67834,-0.08502 6.98458,1.601286 8.13473,5.948077 0.19688,0.744099 0.33943,4.796855 0.34046,9.68 l 0.002,8.400001 h -3.34063 -3.34062 l -0.0994,-8.459569 -0.0994,-8.459565 -0.93987,-0.980435 c -0.79863,-0.833098 -1.17591,-0.980432 -2.5106,-0.980432 -1.97658,0 -3.02776,0.714246 -4.07839,2.771136 -0.76146,1.490752 -0.79512,1.822003 -0.89733,8.828865 l -0.10619,7.28 H 240.45381 237.12 Z"
       style="fill:#59b491;stroke-width:0.32000002;fill-opacity:1" />
  </g>
  <g
     id="g2268"
     style="fill:#e1b3d8;fill-opacity:1">
    <path
       id="path827"
       d="m 58.023331,36.995638 c -1.66135,-0.448413 -3.240653,-1.589114 -3.634563,-2.625178 -0.164486,-0.432631 -0.447587,-1.75497 -0.62911,-2.93853 -0.416618,-2.716374 -1.00889,-5.271687 -1.302749,-5.620614 -0.124455,-0.147777 -1.168259,1.65381 -2.319568,4.003528 -2.440797,4.981446 -3.117773,5.765411 -4.894458,5.668003 -0.683584,-0.03748 -1.573933,0.03949 -1.97855,0.171043 C 42.097427,36.033282 40.96,35.105093 40.96,33.773458 c 0,-0.600486 0.146685,-1.477603 0.325968,-1.94915 0.288582,-0.759036 0.261059,-0.828881 -0.24,-0.609043 -1.009085,0.442731 -2.966717,0.542479 -3.41095,0.1738 -0.44986,-0.373352 -0.892388,-2.528174 -0.938503,-4.569902 -0.02198,-0.973866 0.190365,-1.385531 1.211581,-2.34866 1.631059,-1.538289 4.832029,-2.992317 8.279478,-3.760924 l 1.867575,-0.416374 -2.667575,-0.586374 c -5.628288,-1.237184 -7.424099,-2.078976 -7.727484,-3.622283 -0.09564,-0.486501 -0.355581,-1.487364 -0.577652,-2.224141 -0.318323,-1.056123 -0.321616,-1.519891 -0.01555,-2.191622 0.348173,-0.764158 0.532522,-0.840516 1.787543,-0.740406 l 1.399334,0.111622 -0.478038,-0.924356 c -0.809338,-1.5649798 -0.201901,-2.3233418 2.072387,-2.5873008 2.366054,-0.27461 4.133424,0.1831865 5.233322,1.3555713 0.46279,0.493288 1.430921,2.0693185 2.151408,3.5022895 0.720483,1.432971 1.441465,2.686671 1.602182,2.786 0.481402,0.297522 0.587926,-0.793042 0.325485,-3.332204 -0.267287,-2.5860532 -0.11745,-4.7479356 0.428038,-6.1758569 0.450919,-1.1803569 2.857248,-2.8082653 4.471063,-3.0247234 1.443875,-0.1936645 1.847491,0.1570118 1.855491,1.6121159 l 0.0049,0.8915364 1.194281,-0.8115364 c 2.218877,-1.5077658 2.987591,-1.1128362 4.552781,2.3390101 0.605386,1.3351073 -0.204016,2.9989979 -2.993328,6.1534023 -3.786512,4.282126 -3.868496,4.422911 -1.946605,3.342708 6.633245,-3.728229 7.771997,-4.019135 10.065472,-2.571327 2.297108,1.4501 2.575853,3.103565 0.773645,4.589097 -1.138576,0.938513 -1.14384,0.953832 -0.4,1.164753 2.189149,0.620749 2.513984,0.865926 2.503578,1.889644 -0.0056,0.550648 -0.2216,1.2807 -0.48,1.622339 -0.258403,0.341639 -0.469824,0.883755 -0.469824,1.204704 0,0.799887 -1.838109,1.854968 -3.2,1.836809 -1.23296,-0.01644 -5.381584,-0.910839 -7.76,-1.672974 -0.836,-0.267886 -1.52,-0.440902 -1.52,-0.384482 0,0.05642 0.54,0.430727 1.2,0.831791 0.66,0.401064 1.272,0.808809 1.36,0.906099 0.241545,0.267048 1.358269,0.942584 2.084768,1.261132 0.354624,0.155492 1.398624,0.960493 2.32,1.788891 1.656806,1.489613 1.675232,1.526712 1.675232,3.373298 0,1.635936 -0.104397,1.949238 -0.843155,2.530346 -0.531581,0.418144 -1.312861,0.663225 -2.114237,0.663225 -0.951559,0 -1.228323,0.111428 -1.100986,0.443264 0.09356,0.243796 -0.04321,0.747796 -0.303907,1.12 -0.539155,0.769751 -2.187629,0.854983 -4.494384,0.232372 z"
       style="fill:#e1b3d8;stroke-width:0.32000002;fill-opacity:1" />
  </g>
  <g
     id="g2309"
     transform="matrix(0.09644403,0,0,0.09644403,37.512785,19.988276)">
    <path
       sodipodi:nodetypes="cssssssc"
       inkscape:connector-curvature="0"
       id="path941-8"
       d="m 148.21574,-19.521294 c -7.75567,0.97919 -21.1791,5.0539 -24.14511,13.8172003 -3.27343,9.6716 -2.34167,27.7923597 2.74069,33.6906997 5.1437,5.96954 10.74488,14.49844 21.26967,16.97486 10.52478,2.47642 25.28224,2.44273 34.08447,-4.49694 7.59436,-5.98738 9.32026,-12.86645 13.03489,-27.72497 3.71463,-14.8585297 0.93503,-24.48198 -4.88546,-27.92712 -13.44659,-7.95901 -42.09915,-4.33373 -42.09915,-4.33373 z"
       style="fill:#e8cb00;fill-opacity:0.99107139;stroke:none;stroke-width:1px;stroke-linecap:butt;stroke-linejoin:miter;stroke-opacity:1" />
    <path
       sodipodi:nodetypes="cssssc"
       inkscape:connector-curvature="0"
       id="path939"
       d="m 157.20961,-4.4711237 c 0,0 -12.11784,1.14239 -15.21337,6.71434 -3.09552,5.57194 -2.80806,17.4255197 7.62091,22.0235197 8.7943,3.87729 17.45397,2.73544 23.03116,-5.24555 5.5053,-7.87812 4.85183,-16.7115497 2.31846,-19.9019497 -4.88875,-6.15663 -17.75716,-3.59036 -17.75716,-3.59036 z"
       style="fill:#238674;fill-opacity:1;stroke:none;stroke-width:1px;stroke-linecap:butt;stroke-linejoin:miter;stroke-opacity:1" />
  </g>
</svg>
