<?xml version="1.0" standalone="no"?>
<!DOCTYPE svg PUBLIC "-//W3C//DTD SVG 20010904//EN"
 "http://www.w3.org/TR/2001/REC-SVG-20010904/DTD/svg10.dtd">
<svg version="1.0" xmlns="http://www.w3.org/2000/svg"
 width="512.000000pt" height="512.000000pt" viewBox="0 0 512.000000 512.000000"
 preserveAspectRatio="xMidYMid meet">
<metadata>
Created by potrace 1.11, written by Peter Selinger 2001-2013
</metadata>
<g transform="translate(0.000000,512.000000) scale(0.100000,-0.100000)"
fill="#000000" stroke="none">
<path d="M2760 5050 c-19 -4 -49 -14 -67 -23 -18 -9 -37 -17 -44 -17 -21 0
-175 -79 -194 -100 -10 -11 -37 -31 -60 -45 -23 -13 -73 -58 -111 -98 -74 -79
-108 -149 -119 -240 -3 -26 -10 -59 -16 -74 -5 -14 -12 -56 -14 -91 -2 -36 -7
-90 -11 -121 -15 -112 -2 -296 31 -461 21 -105 26 -303 13 -505 -6 -99 -14
-135 -27 -135 -33 0 -241 322 -323 500 -22 47 -46 96 -54 110 -8 14 -44 83
-80 154 -62 121 -72 136 -177 241 -146 145 -200 181 -319 209 -71 17 -117 22
-198 20 -181 -4 -282 -15 -341 -34 -31 -11 -70 -22 -88 -25 -48 -8 -77 -32
-95 -75 -32 -80 -30 -114 14 -212 21 -49 49 -102 60 -118 12 -17 25 -44 30
-60 7 -26 6 -30 -11 -30 -11 0 -34 7 -51 16 -17 9 -42 18 -55 20 -14 3 -36 12
-50 22 -20 12 -49 16 -121 17 l-94 0 -45 -49 c-69 -77 -76 -97 -75 -211 1 -55
4 -111 7 -125 2 -14 8 -38 11 -55 4 -16 23 -64 44 -105 32 -62 39 -89 45 -160
9 -114 32 -159 116 -223 49 -37 169 -95 249 -119 36 -11 76 -26 90 -33 14 -7
46 -16 73 -19 26 -4 60 -11 75 -17 15 -6 74 -21 132 -34 101 -23 232 -53 315
-74 22 -5 59 -12 82 -15 23 -3 50 -9 60 -14 10 -5 47 -15 83 -21 95 -18 94
-17 110 -25 8 -3 47 -16 85 -29 39 -12 69 -27 68 -32 -1 -5 -21 -17 -45 -25
-23 -9 -52 -21 -63 -27 -11 -6 -60 -14 -109 -17 -49 -4 -96 -11 -105 -16 -9
-4 -37 -11 -61 -15 -85 -12 -102 -16 -138 -30 -19 -9 -65 -22 -101 -30 -36 -8
-75 -19 -86 -24 -67 -32 -165 -71 -177 -71 -7 0 -26 -9 -43 -20 -16 -11 -39
-20 -50 -20 -11 0 -84 -31 -162 -70 -78 -38 -146 -70 -152 -70 -5 0 -16 -8
-23 -19 -7 -10 -26 -25 -43 -33 -16 -9 -46 -30 -65 -47 -19 -17 -53 -46 -75
-63 -60 -47 -138 -147 -170 -218 -40 -86 -39 -207 0 -303 33 -79 35 -86 41
-182 10 -157 31 -235 77 -289 25 -29 27 -29 130 -29 90 1 119 6 203 33 55 17
122 42 149 55 79 35 94 39 101 21 4 -9 2 -22 -4 -29 -6 -6 -13 -25 -16 -42 -2
-16 -12 -52 -21 -80 -9 -27 -23 -81 -31 -119 -8 -38 -19 -75 -24 -82 -24 -28
-11 -129 25 -189 32 -55 61 -80 123 -104 65 -26 120 -26 191 -2 47 17 76 18
225 14 113 -3 185 -1 213 6 47 13 157 107 169 144 4 12 16 32 28 44 24 24 434
839 461 915 9 26 27 62 40 80 13 18 45 71 71 118 50 89 108 160 131 160 7 0
13 -1 13 -3 0 -2 4 -28 10 -58 5 -30 12 -69 15 -88 3 -19 10 -41 15 -50 4 -9
11 -37 15 -61 3 -25 15 -81 27 -125 11 -44 22 -100 25 -125 2 -25 8 -56 13
-70 5 -14 13 -43 19 -65 9 -38 13 -64 26 -177 3 -26 12 -62 19 -80 8 -18 17
-65 21 -103 4 -40 15 -83 26 -101 10 -17 19 -44 19 -60 0 -16 5 -45 10 -64 6
-19 13 -51 16 -70 13 -81 74 -179 149 -238 88 -70 250 -136 360 -148 33 -3 85
-14 115 -24 30 -10 72 -21 94 -24 21 -4 41 -8 45 -10 26 -16 183 -23 243 -11
90 19 161 107 160 200 0 29 -5 62 -11 74 -12 22 -18 98 -8 107 3 3 33 -10 65
-30 76 -46 133 -57 198 -39 27 8 68 18 92 22 51 9 137 67 191 127 63 71 80
129 85 301 l5 147 -31 56 c-16 30 -41 71 -55 90 -29 40 -213 220 -224 220 -4
0 -14 6 -21 13 -18 18 -105 77 -114 77 -3 0 -29 16 -55 35 -27 19 -52 35 -56
35 -3 0 -21 11 -39 25 -18 14 -36 25 -39 25 -4 0 -37 20 -74 43 -57 38 -102
66 -206 130 -58 35 -233 149 -250 162 -11 9 -38 28 -61 43 -94 62 -144 105
-144 123 0 20 8 23 50 19 39 -3 203 -61 224 -79 10 -9 20 -15 22 -13 7 4 58
-10 87 -25 16 -8 36 -16 45 -18 49 -9 219 -58 250 -71 21 -8 57 -18 82 -20 25
-3 77 -15 115 -26 39 -11 88 -23 110 -25 22 -2 54 -9 71 -14 17 -5 58 -11 93
-14 34 -2 66 -7 71 -10 21 -13 60 -16 199 -16 157 0 168 1 290 38 128 38 165
90 170 239 1 21 14 48 41 80 23 27 48 64 57 82 8 17 19 32 23 32 5 0 12 14 15
32 4 17 17 39 28 48 28 23 32 127 5 141 -9 5 -24 25 -33 43 -9 19 -24 36 -33
39 -9 3 -82 28 -162 55 -136 47 -189 59 -267 61 -31 1 -32 2 -22 29 9 25 26
40 138 120 92 66 182 164 212 230 35 78 35 83 4 166 -64 171 -155 243 -481
381 -19 8 -71 13 -132 13 -87 0 -110 -3 -169 -27 -107 -44 -544 -260 -580
-287 -18 -13 -52 -33 -77 -44 -25 -10 -73 -37 -108 -59 -34 -23 -66 -41 -70
-41 -5 0 -14 -5 -21 -11 -40 -36 -257 -146 -304 -155 -41 -8 -67 10 -42 29 8
7 29 32 46 57 17 25 79 95 138 155 59 61 125 133 147 160 22 28 71 84 108 125
38 41 81 92 97 112 47 61 130 159 196 232 34 37 64 73 66 80 2 6 20 31 41 56
20 25 47 65 60 90 12 25 26 47 29 50 13 9 30 64 36 111 4 25 12 63 19 83 14
40 12 90 -5 144 -6 18 -12 40 -13 48 -2 13 -39 66 -86 124 -11 14 -23 38 -26
54 -2 15 -11 38 -18 49 -8 12 -17 36 -20 52 -12 49 -32 72 -98 108 -97 54
-124 55 -205 11 -37 -21 -91 -53 -120 -71 -29 -18 -56 -33 -60 -33 -4 0 -35
-25 -68 -55 -65 -59 -102 -77 -116 -54 -5 8 -9 39 -10 69 -3 170 -7 208 -25
239 -10 17 -27 34 -39 38 -26 9 -199 11 -245 3z"/>
</g>
</svg>
