<svg xmlns="http://www.w3.org/2000/svg" width="288" height="152.96">
  <g fill="#e1b3d8">
    <path d="M25.164 136.709c-4.417-.106-7.005 2.588-6.96 7.338.033 3.588 1.407 5.89 4.085 6.846 3.564 1.27 7.391-.123 8.79-3.2.886-1.952.821-6.01-.124-7.662-1.157-2.023-2.67-3.034-4.883-3.263-.31-.033-.613-.052-.908-.059zm-.08 2.246c2.565.018 4.1 1.896 4.1 5.082 0 2.248-.833 3.807-2.438 4.568-3.17 1.504-5.945-.631-5.945-4.574 0-3.147 1.257-4.841 3.756-5.056.18-.016.356-.021.527-.02zM63.52 151.071c-.863-.192-.95-.324-.87-1.305.05-.6.13-1.132.178-1.18.048-.049.64.064 1.314.25 1.698.469 3.18.133 3.7-.838.606-1.135.018-2.214-1.67-3.062-3.352-1.684-4.498-3.376-3.774-5.571.702-2.127 2.674-2.985 5.926-2.578 1.567.195 1.756.3 1.756.97 0 1.527-.212 1.674-1.914 1.326-1.964-.403-3.206.055-3.206 1.18 0 .893.568 1.417 2.664 2.457 2.327 1.154 3.096 2.239 3.096 4.37 0 1.504-.131 1.89-.905 2.664-1.384 1.384-3.758 1.88-6.295 1.317zM183.36 151.075c-.573-.158-.83-.478-.905-1.127-.145-1.252.24-1.512 1.656-1.121 1.56.43 2.985.109 3.588-.812.802-1.224.166-2.155-2.391-3.499-3.148-1.654-3.894-3.257-2.691-5.78.725-1.521 2.609-2.258 5.111-2 2.145.222 2.42.439 2.168 1.702l-.192.96-1.554-.32c-1.12-.228-1.786-.212-2.381.06-1.786.813-1.225 2.074 1.55 3.48 2.526 1.282 3.081 2.084 3.081 4.454 0 1.726-.116 2.134-.8 2.818-1.266 1.267-4.037 1.793-6.24 1.185zM201.2 151.149c-.79-.136-.88-.284-.88-1.445 0-1.05.096-1.256.508-1.098 1.242.477 2.97.559 3.69.175 1.993-1.062 1.735-2.671-.612-3.817-3.514-1.714-4.41-3.139-3.625-5.76.597-1.993 2.814-2.893 5.962-2.42 1.468.22 1.473.224 1.375 1.398-.071.857-.229 1.145-.578 1.06-2.69-.662-4.48-.242-4.48 1.05 0 .877.251 1.108 2.432 2.239 2.832 1.468 3.704 3.042 3.194 5.765-.415 2.21-3.473 3.459-6.986 2.853zM217.795 136.688c-1.486.01-2.67.363-3.818 1.113-2.686 1.753-3.64 6.58-1.965 9.941.784 1.575 2.432 3.025 3.847 3.385 4.06 1.034 7.984-1.205 8.772-5.006.997-4.808-1.263-8.835-5.238-9.332a12.235 12.235 0 00-1.598-.102zm.396 2.24c2.677.096 4.646 2.818 4.053 6.326-.121.718-.646 1.756-1.228 2.43-.837.968-1.272 1.199-2.457 1.298-1.65.14-2.107.001-3.147-.943-2.53-2.299-2.03-7.54.836-8.736a4.598 4.598 0 011.943-.375zM232.987 151.127c-1.307-.246-3.177-1.625-4.104-3.026-.733-1.107-.9-1.748-.982-3.758-.084-2.029.02-2.657.64-3.859 1.51-2.933 4.861-4.362 8.553-3.648 1.238.24 1.479.408 1.549 1.084.136 1.316-.281 1.665-1.49 1.243-1.255-.437-3.581-.17-4.66.537-1.212.795-2.093 2.55-2.093 4.174 0 1.676.517 2.799 1.892 4.106.851.81 1.244.942 2.828.958 1.012.01 2.246-.107 2.742-.26.89-.275.9-.263.8.949-.083.995-.253 1.27-.902 1.448-.892.246-3.585.276-4.773.052zM8.32 148.17c0-2.847-.01-2.886-1.36-4.88-.747-1.105-1.432-2.082-1.52-2.17-.295-.292-2.56-3.827-2.56-3.995 0-.09.64-.165 1.421-.165h1.422l1.89 2.909 1.891 2.909 1.438-2.19c.79-1.203 1.61-2.512 1.819-2.908.309-.582.655-.72 1.81-.72.786 0 1.429.097 1.429.217 0 .203-2.836 4.556-3.195 4.903-.09.088-.633.848-1.205 1.69-.982 1.444-1.04 1.688-1.04 4.4v2.87H8.32zM35.2 136.904v14.137h2.56V144.96h.898c1.313 0 1.779.513 3.047 3.36l1.14 2.56 1.458.099c.801.053 1.454.053 1.45 0-.002-.054-.762-1.636-1.687-3.514l-1.681-3.416.967-.78c.87-.7.968-.96.968-2.576 0-1.537-.128-1.926-.886-2.685-.85-.85-1.039-.893-4.561-.996zm2.56 2.295h1.578c1.658 0 2.587.556 2.578 1.543-.007.719-.335 1.167-1.176 1.61-.384.202-1.212.369-1.84.369h-1.14v-1.76zM48.64 144v-7.04h2.56v5.587l2.806-2.794c2.772-2.758 2.826-2.793 4.395-2.793h1.588l-3.273 3.284-3.273 3.284 3.358 3.568c1.848 1.963 3.359 3.653 3.359 3.756 0 .104-.73.188-1.623.188-1.552 0-1.687-.072-3.12-1.675a224.766 224.766 0 00-2.85-3.12l-1.352-1.445-.008 3.12-.007 3.12h-2.56zM74.24 144v-7.04h2.56v5.44h6.08v-5.44h2.56v14.08h-2.56v-6.4H76.8v6.4h-2.56zM89.6 144v-7.04h2.56v14.08H89.6zM96.32 136.904v14.137h2.24V144.96h1.096c1.36 0 1.999.747 3.262 3.827l.922 2.25 1.38.002c1.65.001 1.652.024-.435-4.213l-1.365-2.775.93-.713c.838-.642.93-.898.93-2.568 0-1.499-.149-2.027-.772-2.752-.75-.874-.87-.902-4.479-1.006zm2.24 2.295h1.6c1.74 0 3.096.897 2.744 1.813-.101.264-.183.6-.183.744 0 .144-.454.42-1.008.613a7.589 7.589 0 01-2.08.352H98.56v-1.76zM110.08 144v-7.04h8.04l-.1 1.04-.1 1.04-2.8.093-2.8.092v3.175l2 .037c3.025.056 2.95.028 3.06 1.163l.1 1.04h-5.16v4.16h5.76v2.24h-8zM128.64 136.96v14.081h3.173c6.07 0 8.476-1.998 8.476-7.041 0-2.626-.416-3.735-1.941-5.184-1.522-1.445-2.962-1.855-6.498-1.855zm2.24 2.24h1.962c2.561 0 3.871.776 4.619 2.734.87 2.276.476 4.172-1.176 5.666-1.241 1.122-1.46 1.2-3.367 1.2h-2.037V144zM149.395 136.99c-.98-.038-1.095.328-2.645 4.043a146.955 146.955 0 01-1.63 3.738c-.44.961-.8 1.824-.8 1.918 0 .095-.36.958-.8 1.92-.44.962-.8 1.903-.8 2.09 0 .187.543.342 1.206.342 1.156 0 1.236-.074 1.965-1.762l.76-1.76H152.915l.625 1.68c.603 1.62.67 1.685 1.941 1.78.725.054 1.319-.037 1.319-.202 0-.336-.692-2.1-1.621-4.134-.341-.747-.62-1.438-.62-1.538 0-.1-.308-.857-.685-1.683a168.692 168.692 0 01-1.69-3.902c-1-2.39-1.01-2.4-2.31-2.497-.182-.013-.34-.027-.48-.033zm.15 2.873c.202.005.67.88 1.184 2.29.402 1.103.853 2.145 1.001 2.312.15.167.27.49.27.719 0 .302-.622.416-2.275.416-2.273 0-2.273-.001-2.07-.809.11-.445.558-1.587.993-2.539.436-.952.791-1.892.791-2.09 0-.205.039-.3.106-.299zM159.68 144v-7.04h2.24v11.84h5.76v2.24h-8zM170.88 144v-7.04h8.36l-.1 1.04-.1 1.04-2.8.093-2.8.092v3.148l2.48.094 2.48.093.1 1.04.1 1.04h-5.16v4.135l2.8.093 2.8.092.1 1.04.1 1.04h-8.36zM241.6 144v-7.04h2.56v14.08h-2.56zM248.64 144v-7.04H257l-.1 1.04-.1 1.04-2.8.093-2.8.092v3.395l2.48-.03 2.48-.03.1 1.04.1 1.04h-5.16v4.16h5.76v2.24h-8.32V144zM263.642 145.52c-.02-3.036-.014-5.7.014-5.92.037-.287-.584-.4-2.202-.4H259.2v-2.24h10.92l-.1 1.04c-.1 1.04-.1 1.04-2.1 1.135l-2 .096V151.04h-2.24zM276.8 148.143v-2.898l-2.408-3.538c-3.434-5.047-3.33-4.747-1.634-4.747h1.42l1.94 2.893 1.938 2.894 1.852-2.883c1.851-2.882 1.853-2.884 3.212-2.894 1.352-.01 1.662.305 1.029 1.044-.182.212-1.334 1.87-2.56 3.683l-2.229 3.297v6.046h-2.56z"/>
  </g>
  <g fill="#238674">
    <path d="M263.2 128.957c-1.056-.132-2.496-.39-3.2-.574-5.98-1.555-9.064-2.29-9.645-2.296-1.711-.018-2.199-1.287-4.43-11.527-.287-1.32-.658-2.92-.824-3.557-.657-2.525-.178-3.483 1.742-3.483.763 0 2.437 1.676 2.437 2.439 0 .57 1.982 4.13 3.207 5.76 1.33 1.77 4.734 5.241 5.14 5.241.136 0 .438.18.67.402 1.017.966 4.25 2.194 6.682 2.538 7.909 1.119 13.128-2.517 13.154-9.162.02-4.884-2.127-7.025-9.813-9.789-1.584-.57-3.024-1.143-3.2-1.273-.176-.13-.68-.345-1.12-.477-1.251-.373-7.508-3.436-7.627-3.733-.058-.146-.294-.266-.524-.266-.61 0-4.292-2.775-5.698-4.294-2.577-2.784-3.927-7.3-3.652-12.213.193-3.427.57-4.949 1.98-7.973 1.243-2.67 2.453-4.24 4.538-5.893 3.354-2.66 7.03-3.867 11.768-3.867 3.464 0 6.422.666 10.477 2.359 3.224 1.346 3.643 1.384 5.553.514.89-.405 1.72-.571 2.222-.445l.803.201.008 4.366c.004 2.4.143 4.941.31 5.645.571 2.424.768 6.823.329 7.353-1.003 1.207-3.282.188-3.721-1.665-.665-2.802-3.888-7.808-6.28-9.752-3.264-2.653-6.145-3.767-9.757-3.773-3.966-.006-7.06 1.796-8.572 4.993-.927 1.96-1.027 3.963-.289 5.765.5 1.219 2.874 3.959 3.43 3.959.156 0 .666.263 1.133.584.467.32 4.017 1.778 7.89 3.238 3.871 1.46 7.975 3.165 9.12 3.787 2.133 1.161 6.4 5.172 6.4 6.016 0 .25.108.455.241.455.276 0 .77 1.05 1.75 3.731.87 2.375 1.162 8.504.545 11.43-1.435 6.807-5.534 11.753-11.534 13.918-3.468 1.251-8.046 1.77-11.643 1.318zM36.395 66.168c-3.696-.023-10.303.034-22.997.148C.902 66.43.961 66.42.961 68.322c0 1.1 1.004 2.078 2.137 2.078 1.037 0 3.404 1.082 4.314 1.971C9.488 74.4 9.44 73.825 9.44 96.961c0 22.48-.006 22.604-1.632 24.83-.399.545-1.517 1.391-2.485 1.88-2.124 1.076-2.748 2.176-2.11 3.718l.41.99 3.07-.193c7.668-.484 15.457-.562 19.708-.198 3.784.325 5.13.306 8.666-.113 2.303-.273 4.967-.702 5.92-.953 2.696-.71 7.437-2.542 7.975-3.082.088-.088.663-.435 1.28-.772 5.287-2.89 11.69-10.492 13.863-16.46 1.353-3.72 1.489-4.283 2.037-8.467.508-3.884.507-4.323-.036-8.3-.315-2.308-.69-4.497-.834-4.86-.466-1.186-.726-1.934-.808-2.325-.095-.451-1.51-3.384-1.744-3.617-.089-.088-.59-.793-1.115-1.566-1.908-2.81-5.86-6.329-6.731-5.994-.26.1-.482.438-.494.751-.074 1.992-3.328 5.478-5.762 6.176l-1.017.291.166-1.508c.09-.83.071-3.3-.041-5.488l-.205-3.976-.96-.268a25.893 25.893 0 00-1.76-.418l-2.88-.547c-1.047-.2-1.83-.301-5.525-.324zM30.88 70.9c4.351.024 6.597.63 9.76 2.627 1.844 1.166 4.868 4.037 5.972 5.672 4.475 6.624 6.329 17.07 4.602 25.922-.81 4.151-1 4.75-2.465 7.736-1.52 3.098-5.018 6.9-7.52 8.176-2.408 1.23-3.283 1.518-6.19 2.033-1.409.25-2.704.436-2.88.414-3.66-.441-6.196-1.429-7.164-2.789-1.607-2.257-1.629-2.59-1.633-24.439-.003-19.787.017-20.44.655-22.145.495-1.323.948-1.937 1.84-2.492 1.068-.664 1.553-.733 5.023-.715zM96.86 65.12c-.966 0-1.315.167-1.678.8-.443.773-3.537 7.245-5.506 11.52a567.458 567.458 0 01-2.72 5.76 1511.27 1511.27 0 00-3.12 6.56c-.747 1.584-2.29 4.825-3.43 7.2a515.93 515.93 0 00-2.877 6.08c-.812 1.776-2.14 4.581-5.572 11.776-1.033 2.165-1.877 4.074-1.877 4.24 0 .168-.144.303-.32.303-.176 0-.32.17-.32.38 0 .557-2.889 3.245-4.4 4.095-.72.404-1.39 1.039-1.49 1.41-.363 1.355-.201 2.132.503 2.393.381.14 3.586.2 7.12.13 3.535-.07 7.29.009 8.347.174 3.15.495 5.486.446 6.056-.125.626-.626.656-2.18.051-2.785-.25-.25-1.15-.628-2-.842-.85-.213-2.08-.527-2.732-.697-2.25-.587-4.094-2.867-4.094-5.056 0-1.319 2.405-7.425 3.57-9.065.345-.486 1.14-1.013 1.803-1.197 1.455-.404 17.333-.434 19.05-.035.674.156 1.43.55 1.684.873.622.794 1.733 3.17 1.733 3.707 0 .238.122.569.271.736.532.596 1.969 4.999 1.969 6.035 0 1.652-1.18 3.06-3.608 4.303-2.235 1.145-2.752 1.863-2.32 3.225.37 1.166 1.29 1.405 3.64.947 2.274-.443 9.005-.546 18.552-.285 5.535.15 5.887.125 6.318-.461 1.006-1.37.122-3.12-1.79-3.54-1.793-.393-3.39-2.233-5.22-6.011-1.676-3.46-2.15-4.468-4.377-9.348a741.037 741.037 0 00-1.916-4.16 324.175 324.175 0 01-1.584-3.46c-.38-.849-1.403-3.052-2.273-4.897-.87-1.845-1.582-3.406-1.582-3.467 0-.061-.805-1.816-1.787-3.902a606.019 606.019 0 01-2.368-5.075A596.97 596.97 0 00105.021 80a1137.86 1137.86 0 01-2.279-4.96c-4.724-10.352-4.469-9.92-5.883-9.92zM92.423 84l1.789 3.771C95.196 89.846 96 91.62 96 91.711c0 .092.549 1.348 1.22 2.789 2.599 5.574 3.096 6.964 2.598 7.28-.523.33-15.119.413-15.445.087-.307-.307-.263-1.305.088-1.951.166-.306.802-1.635 1.412-2.955.61-1.32 1.984-4.237 3.057-6.482 1.072-2.246 1.95-4.19 1.95-4.32.002-.132.35-.67.774-1.198zM134.958 127.766c-.567-.626-.741-2.203-.313-2.831.13-.19 1.027-.763 1.995-1.274 2.168-1.144 3.09-2.073 3.874-3.901.575-1.34.606-2.52.6-22.747l-.004-21.333-.883-1.752c-.906-1.801-2.394-3.096-3.888-3.385-2.368-.457-3.372-.96-3.682-1.845-.238-.68-.195-1.113.172-1.76l.487-.858 3.822.142c6.265.232 15.727.174 19.704-.12l3.722-.276.543.829c.298.455.496 1.156.438 1.556-.106.737-.49 1.002-3.235 2.226-1.107.494-1.747 1.055-2.32 2.031l-.79 1.348v22.597c0 23.704-.005 23.622 1.42 25.027.585.577 1.046.636 4.655.598 4.96-.052 8.021-.815 12.194-3.04 2.124-1.131 5.438-4.21 6.24-5.797 1.245-2.463 3.076-3.25 4.113-1.77 1.54 2.2-1.073 9.832-4.577 13.364-3.004 3.029-5.704 3.776-11.659 3.228-6.127-.564-19.834-.763-24.066-.35-7.886.77-7.949.77-8.561.094zM187.438 127.766c-.573-.633-.709-1.56-.36-2.467.108-.283 1.179-1.088 2.379-1.789 1.2-.701 2.464-1.67 2.807-2.152 1.424-2.004 1.457-2.485 1.586-22.798.13-20.41.023-22.499-1.292-25.187-.717-1.466-2.437-2.515-5.516-3.363-1.93-.532-2.55-1.627-1.738-3.072.476-.845.528-.857 3.51-.786 10.937.26 24.245.188 32.613-.175 8.78-.381 9.784-.374 10.113.076.46.629.922 6.2.932 11.227l.008 3.84-1.222.1c-1.511.125-2.065-.308-2.316-1.812-.714-4.277-2.462-6.515-5.902-7.56-1.726-.524-3.037-.633-7.71-.64-6.19-.009-6.413.052-7.22 1.982-.595 1.426-.622 17.306-.03 18.112.634.862 3.916 1.302 6.604.885 3.757-.582 5.847-1.937 6.952-4.507 1.402-3.259 1.482-3.354 2.897-3.457 1.059-.077 1.37.022 1.507.48.096.317.147 3.817.113 7.777-.043 5.19.066 7.805.393 9.366.61 2.907.287 3.877-1.334 4.012-1.03.086-1.239-.022-1.674-.864-.274-.53-.498-1.346-.498-1.815 0-1.246-1.461-3.717-2.65-4.481-1.61-1.036-3.877-1.52-7.256-1.55-3.406-.03-4.504.319-5.098 1.622-.235.515-.356 3.963-.356 10.148 0 13.272-.037 13.195 6.376 13.117 5.673-.07 9.99-1.431 14.082-4.444 1.84-1.355 4.822-4.731 4.822-5.461 0-1.19 2.402-1.843 3.337-.907 1.167 1.166.41 5.744-1.604 9.702-1.909 3.75-4.296 5.981-7.413 6.927-1.721.522-6.163.594-9.52.153-4.114-.54-17.631-.742-21.76-.325-7.568.764-7.945.768-8.561.086z"/>
    <path d="M48.822 74.32c.109-1.364.032-5-.17-8.08-.901-13.706-.81-16.305.429-12.226.252.828.99 2.874 1.64 4.546 2.42 6.218 2.522 6.639 2.541 10.4.023 4.48-.713 6.178-3.241 7.48-1.308.674-1.407.5-1.199-2.12z"/>
  </g>
  <g fill="#59b491">
    <path d="M54.4 65.69c0-.662-.5-2.07-2.814-7.93-3.259-8.249-3.754-11.573-2.623-17.6.165-.88.53-3.08.81-4.888.484-3.124 1.743-6.792 2.332-6.792.8 0 1.128 2.98 1.18 10.72.03 4.4.215 9.08.41 10.4 1.114 7.52 1.703 16.64 1.074 16.64-.203 0-.369-.247-.369-.55zM68.459 37.92c-3.642 0-4.165.075-5.55.787-1.727.887-3.875 3.136-4.595 4.813-1.387 3.233-1.683 7.023-.82 10.494 1.113 4.476 4.173 7.342 8.746 8.191.44.082 2.312.1 4.16.04 3.159-.105 5.918-.713 6.96-1.53.408-.32.592-5.058.21-5.44-.105-.104-.646.064-1.2.375-2.888 1.619-7.49 2.258-9.4 1.305-1.81-.904-3.61-3.153-3.61-4.514 0-.154 3.622-.28 8.048-.28h8.049l-.203-3.122c-.36-5.507-1.947-8.52-5.494-10.43-1.117-.6-1.794-.69-5.301-.69zm-.324 4.68c.273-.005.561.006.865.03 1.392.116 1.867.316 2.54 1.075.922 1.043 1.42 2.107 1.42 3.035 0 .585-.267.62-4.8.62-3.09 0-4.8-.118-4.8-.33 0-.183.352-1.026.783-1.876.88-1.739 2.078-2.521 3.992-2.554zM124.48 27.52l-.005 6.48c-.003 3.564-.111 6.328-.24 6.143-.634-.908-2.642-2.04-4.077-2.3-5.372-.968-9.626 1.12-11.4 5.594-.895 2.256-1.23 8.831-.574 11.254.967 3.573 3.07 6.145 5.834 7.135 3.249 1.164 8.118.359 10.156-1.68.623-.622.627-.617.627.495v1.119h6.399V27.52h-6.72zm-5.185 15.36c1.424 0 1.757.14 2.873 1.2 2.238 2.127 2.926 5.932 1.686 9.326-.747 2.042-1.388 2.81-2.846 3.42-1.372.573-2.198.564-3.408-.039-3.459-1.723-4.154-9.665-1.114-12.707 1.068-1.069 1.374-1.2 2.809-1.2zM137.428 62.105c-3.164-.508-3.031-.35-2.812-3.323.106-1.442.24-2.677.298-2.745.058-.068.989.208 2.068.611 2.62.98 5.376 1.028 6.599.114.716-.535.899-.924.899-1.917 0-1.158-.1-1.294-1.44-1.947-.792-.385-2.427-1.011-3.633-1.39-3.724-1.17-5.007-2.79-5.007-6.325 0-2.792.279-3.553 1.865-5.093 1.798-1.744 3.892-2.405 7.5-2.364 3.226.036 5.555.291 6.336.695.43.221.457.592.194 2.599-.169 1.287-.329 2.37-.356 2.408-.027.038-.749-.142-1.605-.4-2.379-.716-5.336-.62-6.389.21-.618.485-.833.914-.763 1.52.11.938 1.236 1.596 5.267 3.075 2.75 1.008 3.705 1.78 4.567 3.687 1.718 3.805-.06 8.22-4.014 9.97-1.614.714-6.86 1.05-9.574.615zM177.145 37.92c-3.913 0-4.3.058-5.967.877-2.344 1.152-3.93 2.783-5.19 5.34-.925 1.876-1.04 2.423-1.134 5.455-.09 2.82.005 3.663.572 5.178 1.34 3.582 4.084 6.123 7.705 7.138 2.43.682 6.929.468 9.314-.441 2.275-.867 4.744-3.141 5.934-5.467.85-1.663.9-1.99.9-5.92 0-3.914-.052-4.268-.9-5.996-1.15-2.341-2.823-4.027-5.184-5.22-1.784-.903-2.053-.944-6.05-.944zm-.102 4.96c1.774 0 3.949 1.01 4.256 1.977.102.321.295.582.431.582.514 0 1.084 3.5.883 5.422-.34 3.255-1.218 4.804-3.347 5.905-1.788.924-3.972.502-5.678-1.096-1.34-1.256-1.826-2.75-1.87-5.75-.033-2.35.071-2.915.762-4.149 1.102-1.966 2.563-2.89 4.563-2.89zM228.32 62.243a16.716 16.716 0 00-1.175-.295c-1.2-.263-2.727-1.633-3.557-3.188-.656-1.228-.712-1.826-.812-8.6l-.108-7.28h-4.428v-4.8h4.452l.094-2.32.094-2.32 3.034-1.013c1.668-.558 3.144-.945 3.28-.861.135.083.246 1.583.246 3.333v3.181h5.12v4.8h-5.12V55.593l.844.843c.918.919 2.122 1.083 3.462.472.45-.205.891-.298.982-.207.09.09.254 1.316.362 2.722l.197 2.558-1.723.206c-1.776.214-4.679.244-5.244.056zM274.373 37.797c-.47-.001-.972.01-1.514.033-3.028.125-3.776.263-4.859.904-3.82 2.262-5.594 5.86-5.594 11.346 0 5.387 1.677 8.676 5.512 10.816.834.466 2.202.99 3.039 1.163 2.531.522 7.956.177 10.082-.641l1.842-.707v-5.688l-.936.483c-3.837 1.984-7.717 2.434-10.175 1.18-1.48-.755-2.97-2.663-2.97-3.801v-.725h16.067l-.222-2.64c-.39-4.646-1.373-7.254-3.53-9.348-1.794-1.742-3.454-2.366-6.742-2.375zm-.57 4.75c.619-.008 1.24.09 1.824.312 1.012.385 2.32 2.124 2.603 3.461l.221 1.04h-4.826c-5.378 0-5.407-.015-4.318-2.198.795-1.594 2.638-2.59 4.496-2.615zM9.6 45.76v-16h17.92v5.44h-11.2v7.36H27.2V48H16.32v13.76H9.6zM30.72 49.92V38.08h5.76l.001 2 .002 2 .648-1.064c1.427-2.34 2.827-3.163 5.602-3.292l1.907-.09.09 3.392.091 3.391-1.283-.325c-2.59-.658-4.525.369-5.557 2.948-.462 1.154-.614 2.759-.767 8.08l-.192 6.64H30.72zM82.56 49.92V38.08h6.4V40.727l.865-.865c1.665-1.665 3.354-2.171 6.834-2.05 2.871.1 3.24.187 4.49 1.068.863.609 1.692 1.602 2.266 2.714l.905 1.753V61.76h-6.4v-7.69c0-6.197-.096-7.92-.492-8.869-.818-1.956-1.326-2.321-3.238-2.321-1.551 0-1.822.112-2.918 1.208-1.793 1.793-1.992 2.869-1.992 10.75v6.922h-6.72zM194.88 52.32v-9.44h-4.48v-4.8h4.48v-2.182c0-5.155 2.263-8.36 6.294-8.914.734-.101 2.414-.083 3.734.04l2.399.226-.16 2.455c-.221 3.408-.195 3.36-1.536 2.8-2.45-1.024-3.773.09-3.957 3.333l-.126 2.242h5.192v4.8h-5.12v18.88h-6.72zM237.12 44.64V27.52h6.72V40.609l.833-.772c1.567-1.452 3.3-2.055 6.05-2.105 4.678-.085 6.985 1.601 8.135 5.948.197.744.34 4.797.34 9.68l.002 8.4h-6.681l-.1-8.46-.099-8.46-.94-.98c-.798-.833-1.176-.98-2.51-.98-1.977 0-3.028.714-4.079 2.771-.761 1.49-.795 1.822-.897 8.829l-.106 7.28h-6.668z"/>
  </g>
  <path d="M58.023 36.996c-1.661-.449-3.24-1.59-3.634-2.626-.165-.432-.448-1.755-.63-2.938-.416-2.716-1.008-5.272-1.302-5.62-.125-.148-1.168 1.653-2.32 4.003-2.44 4.981-3.117 5.765-4.894 5.668-.684-.038-1.574.04-1.979.17-1.167.38-2.304-.548-2.304-1.88 0-.6.147-1.477.326-1.949.289-.759.261-.829-.24-.609-1.01.443-2.967.543-3.411.174-.45-.373-.892-2.528-.938-4.57-.022-.974.19-1.385 1.211-2.348 1.631-1.539 4.832-2.993 8.28-3.761l1.867-.417-2.667-.586c-5.629-1.237-7.425-2.08-7.728-3.622a29.379 29.379 0 00-.578-2.225c-.318-1.056-.321-1.52-.015-2.191.348-.764.532-.84 1.787-.74l1.4.111-.478-.924c-.81-1.565-.202-2.324 2.072-2.588 2.366-.274 4.134.184 5.233 1.356.463.493 1.431 2.07 2.152 3.502.72 1.433 1.441 2.687 1.602 2.786.481.298.588-.793.326-3.332-.268-2.586-.118-4.748.428-6.176.45-1.18 2.857-2.808 4.47-3.025 1.444-.193 1.848.157 1.856 1.613l.005.891 1.194-.811c2.22-1.508 2.988-1.113 4.553 2.339.605 1.335-.204 2.999-2.993 6.153-3.787 4.282-3.869 4.423-1.947 3.343 6.633-3.729 7.772-4.02 10.066-2.572 2.297 1.45 2.575 3.104.773 4.59-1.138.938-1.144.953-.4 1.164 2.19.62 2.514.866 2.504 1.89-.006.55-.222 1.28-.48 1.622-.259.342-.47.884-.47 1.205 0 .8-1.838 1.855-3.2 1.837-1.233-.017-5.382-.911-7.76-1.673-.836-.268-1.52-.441-1.52-.385 0 .057.54.43 1.2.832.66.401 1.272.809 1.36.906.242.267 1.358.943 2.085 1.261.354.156 1.398.96 2.32 1.79 1.657 1.489 1.675 1.526 1.675 3.372 0 1.636-.104 1.95-.843 2.53-.532.419-1.313.664-2.114.664-.952 0-1.229.111-1.101.443.093.244-.044.748-.304 1.12-.54.77-2.188.855-4.495.233z" fill="#e1b3d8"/>
  <path d="M51.807 18.106c-.748.094-2.042.487-2.328 1.332-.316.933-.226 2.68.264 3.25.496.575 1.036 1.398 2.051 1.637 1.015.238 2.439.235 3.288-.434.732-.578.898-1.241 1.257-2.674.358-1.433.09-2.361-.471-2.693-1.297-.768-4.06-.418-4.06-.418z" fill="#e8cb00" fill-opacity=".991"/>
  <path d="M52.675 19.557s-1.169.11-1.468.648c-.298.537-.27 1.68.735 2.124.849.374 1.684.263 2.222-.506.53-.76.468-1.612.223-1.92-.471-.593-1.712-.346-1.712-.346z" fill="#238674"/>
</svg>
